<?xml version="1.0" encoding="utf-8"?>
<!-- Generator: Adobe Illustrator 24.3.0, SVG Export Plug-In . SVG Version: 6.00 Build 0)  -->
<svg version="1.1" id="Layer_1" xmlns="http://www.w3.org/2000/svg" xmlns:xlink="http://www.w3.org/1999/xlink" x="0px" y="0px"
	 viewBox="0 0 1200 1200" style="enable-background:new 0 0 1200 1200;" xml:space="preserve">
<style type="text/css">
	.st0{opacity:0.3;fill:url(#SVGID_1_);}
	.st1{opacity:0.88;fill:#FFFFFF;}
	.st2{fill:url(#SVGID_2_);}
	.st3{fill:url(#SVGID_3_);}
	.st4{opacity:0.77;fill:#FFFFFF;}
	.st5{fill:#FFFFFF;}
	.st6{fill:url(#SVGID_4_);}
	.st7{fill:url(#SVGID_5_);}
	.st8{fill:url(#SVGID_6_);}
	.st9{fill:url(#SVGID_7_);}
	.st10{opacity:0.3;fill:#F4F7FA;}
	.st11{fill:url(#SVGID_8_);}
	.st12{fill:url(#SVGID_9_);}
	.st13{fill:url(#SVGID_10_);}
	.st14{opacity:0.25;fill:url(#SVGID_11_);}
	.st15{fill:url(#SVGID_12_);}
	.st16{fill:url(#SVGID_13_);}
	.st17{fill:#EFEFEF;}
	.st18{fill:url(#SVGID_14_);}
	.st19{opacity:0.4;fill:url(#SVGID_15_);}
	.st20{fill:url(#SVGID_16_);}
	.st21{fill:url(#SVGID_17_);}
	.st22{fill:url(#SVGID_18_);}
	.st23{fill:url(#SVGID_19_);}
	.st24{fill:url(#SVGID_20_);}
	.st25{fill:url(#SVGID_21_);}
	.st26{fill:url(#SVGID_22_);}
	.st27{fill:url(#SVGID_23_);}
	.st28{fill:url(#SVGID_24_);}
	.st29{fill:url(#SVGID_25_);}
	.st30{fill:url(#SVGID_26_);}
	.st31{fill:url(#SVGID_27_);}
	.st32{fill:url(#SVGID_28_);}
	.st33{fill:url(#SVGID_29_);}
	.st34{fill:url(#SVGID_30_);}
	.st35{fill:url(#SVGID_31_);}
	.st36{fill:url(#SVGID_32_);}
	.st37{fill:url(#SVGID_33_);}
	.st38{fill:url(#SVGID_34_);}
	.st39{fill:url(#SVGID_35_);}
	.st40{fill:url(#SVGID_36_);}
	.st41{fill:#313364;}
	.st42{opacity:0.3;fill:url(#SVGID_37_);}
	.st43{fill:url(#SVGID_38_);}
	.st44{fill:#D8DEE8;}
	.st45{fill:url(#SVGID_39_);}
	.st46{fill:url(#SVGID_40_);}
	.st47{fill:#CB3DFF;}
	.st48{fill:url(#SVGID_41_);}
	.st49{fill:url(#SVGID_42_);}
</style>
<g>
	<linearGradient id="SVGID_1_" gradientUnits="userSpaceOnUse" x1="17.6351" y1="600" x2="1182.3649" y2="600">
		<stop  offset="0" style="stop-color:#9D18FE"/>
		<stop  offset="1" style="stop-color:#CB3DFF"/>
	</linearGradient>
	<path class="st0" d="M552.81,18.04C326.78,11.54,56.65,143.19,21.49,318.36C-13.82,494.31,206.3,622.77,152.65,855.52
		c-26.37,114.42-91.88,136.76-73.34,194.03c44.13,136.3,478.15,204.22,789.27,21.34c51.55-30.3,282.99-166.34,310.99-407.61
		C1215.84,350.93,891.93,27.78,552.81,18.04z"/>
	<path class="st1" d="M379.62,116.23c48.98,42.41,70.68,29.15,115.89,64.82c47.44,37.42,42.09,66.66,100.31,104.64
		c22.84,14.9,25.72,11.74,38.63,22.81c45.33,38.88,45.68,108.58,45.85,140.95c0.41,81.41-44.63,179.24-89.55,256.43
		c-5.06,10.71-10.28,20.72-15.47,29.97c0.91-0.38,1.81-0.73,2.72-1.1c76.5-110.06,121.79-204.79,132.79-267.3
		c6.1-34.65,14.11-80.18-8.83-123.06c-16.13-30.14-32.62-31.07-50.7-68.48c-21.8-45.1-7.26-63.29-29.16-91.55
		c-20.63-26.63-37.47-15.56-75.58-43.55c-45.49-33.41-40.44-63.09-79.06-93.5c-13.73-10.81-33.9-22.43-63.83-28.8
		c-6.49,3.84-10.82,8.39-11.35,13.35c-1.39,13.01,24.4,19.01,58.56,55.78c1.71,1.84,31.56,34.21,26.47,40.42
		c-3.57,4.35-23.05-5.69-43.71-16.35c-38.8-20.01-46.69-30.49-62.28-28.2c-5.9,0.87-12.06,3.47-17.4,7.14
		C361.06,98.8,369.58,107.53,379.62,116.23z"/>
	<path class="st1" d="M590.76,705.87c23.55-49.86,43.59-114.94,40.59-190.01c-1.59-39.85-3.96-99.28-44.97-151.79
		c-42.53-54.45-108.49-78.25-118.34-81.69c-42.71-14.89-64.17-9.66-98.93-31.1c-13.07-8.06-23.93-17.4-32.98-26.93
		c-7.54,14.85,8.49,37.62,13.74,45.06c23.91,33.94,49.57,34.51,102.81,66.82c37.11,22.52,78.95,48.63,80.48,84.67
		c0.41,9.59-1.94,22.23-8.05,24.08c-11.22,3.41-22.21-33.48-61.51-61.36c-12.35-8.76-38.45-27.27-60.44-17.91
		c-3.42,1.46-6.79,3.62-9.83,6.3c13.83,7.6,28.33,17.28,42.46,29.78c35.1,31.03,33.61,48.9,69.1,76.92
		c38.92,30.71,57.2,22.24,78.27,48.1c25.29,31.03,22.43,72.02,20.73,96.39c-3.12,44.76-20.5,82.22-39.75,110.85
		c-0.51,2.39-1.05,4.81-1.62,7.26c3.16-1.41,6.26-2.75,9.32-4.04C578.05,727.3,584.4,716.8,590.76,705.87z"/>
	<linearGradient id="SVGID_2_" gradientUnits="userSpaceOnUse" x1="66.3401" y1="751.2181" x2="1066.4043" y2="751.2181">
		<stop  offset="0" style="stop-color:#9D18FE"/>
		<stop  offset="1" style="stop-color:#CB3DFF"/>
	</linearGradient>
	<path class="st2" d="M1066.4,1022.04c0.04,15.26-10.77,28.42-24.06,29.24l-936.55,59.49c-17.74,1.1-37.81-13.87-37.85-31.61
		l-1.6-655.52c-0.04-17.74,20.43-32.71,38.18-32.01l936.31,37.79c13.3,0.52,24.16,13.43,24.2,28.69L1066.4,1022.04z"/>
	
		<linearGradient id="SVGID_3_" gradientUnits="userSpaceOnUse" x1="86.0687" y1="617.4498" x2="945.9609" y2="878.0413" gradientTransform="matrix(1 -2.400000e-03 2.400000e-03 1 -4.1452 1.7957)">
		<stop  offset="0" style="stop-color:#9D18FE"/>
		<stop  offset="1" style="stop-color:#CB3DFF"/>
	</linearGradient>
	<path class="st3" d="M1083.77,1023.07c0.04,15.34-10.82,28.56-24.18,29.38l-946.56,58.43c-17.83,1.1-32.52-12.58-32.56-30.41
		l-1.6-658.69c-0.04-17.83,14.58-31.84,32.41-31.14l946.79,36.95c13.36,0.52,24.28,13.49,24.32,28.83L1083.77,1023.07z"/>
	<path class="st4" d="M549.36,917.96L229.31,930.3c-13.57,0.52-24.87-10.32-24.9-23.9l-0.94-384.21
		c-0.03-13.51,11.1-24.38,24.6-24.03l320.1,8.36c12.97,0.34,23.32,10.94,23.35,23.91l0.89,363.5
		C572.44,906.85,562.25,917.46,549.36,917.96z"/>
	<path class="st5" d="M858.03,679.31l-226.35,0.55c-8.59,0.02-15.56-6.92-15.58-15.51l0,0c-0.02-8.59,6.92-15.56,15.51-15.58
		l226.35-0.55c8.59-0.02,15.56,6.92,15.58,15.51l0,0C873.56,672.31,866.62,679.29,858.03,679.31z"/>
	<path class="st5" d="M1011.26,839.19l-377.93,12.47c-9.25,0.31-16.79-6.41-16.81-14.99l0,0c-0.02-8.59,7.48-15.75,16.73-16
		l377.93-10.28c7.97-0.22,14.42,6.04,14.44,13.97l0,0C1025.64,832.28,1019.22,838.93,1011.26,839.19z"/>
	<path class="st5" d="M1011.4,896.23l-377.92,16.79c-9.25,0.41-16.79-6.21-16.81-14.8l0,0c-0.02-8.59,7.48-15.84,16.73-16.19
		l377.92-14.61c7.97-0.31,14.42,5.87,14.44,13.81l0,0C1025.78,889.16,1019.36,895.88,1011.4,896.23z"/>
	<path class="st5" d="M858.85,630.53l-226.29,0.55c-9.12,0.02-16.55-6.92-16.57-15.51l0,0c-0.02-8.59,7.38-15.51,16.5-15.46
		l226.3,1.19c8.08,0.04,14.63,6.59,14.65,14.63l0,0C873.44,623.98,866.93,630.51,858.85,630.53z"/>
	<path class="st5" d="M858.74,584.69l-226.3-2.18c-9.12-0.09-16.55-7.12-16.57-15.71l0,0c-0.02-8.59,7.38-15.42,16.5-15.26
		l226.3,3.92c8.08,0.14,14.63,6.77,14.65,14.81v0C873.33,578.31,866.82,584.76,858.74,584.69z"/>
	
		<linearGradient id="SVGID_4_" gradientUnits="userSpaceOnUse" x1="386.3863" y1="582.4667" x2="296.166" y2="461.233" gradientTransform="matrix(1 -2.400000e-03 2.400000e-03 1 -4.1452 1.7957)">
		<stop  offset="0" style="stop-color:#311944"/>
		<stop  offset="1" style="stop-color:#893976"/>
	</linearGradient>
	<path class="st6" d="M377.4,669.9c-3.65-1.81-39.11-20.09-43.23-56.6c-0.6-5.29-2.91-25.78,10.11-40.85
		c16.66-19.29,47.05-20.36,65.74-13.77c9.23,3.25,9.41,6.15,24.9,12.1c19.14,7.35,26.27,5.77,30.81,12.05
		c6.44,8.89,3.45,27.7-6.97,38.01c-23.35,23.12-73.5-6.6-87.12,11.65C367.66,637.81,366.3,648.11,377.4,669.9z"/>
	
		<linearGradient id="SVGID_5_" gradientUnits="userSpaceOnUse" x1="287.6664" y1="998.1343" x2="392.8253" y2="847.4066" gradientTransform="matrix(1 -2.400000e-03 2.400000e-03 1 -4.1452 1.7957)">
		<stop  offset="0" style="stop-color:#9D18FE"/>
		<stop  offset="1" style="stop-color:#CB3DFF"/>
	</linearGradient>
	<path class="st7" d="M249.06,909.33c89.66-0.68,194.29-11.04,284.11-11.83c11.15-0.1,19.91-9.59,19.09-20.71
		c-3-40.72-16.09-127.69-77.1-146.47c-29.75-15.65-64.07-16.81-76.97-17.24c-19.75-0.67-51.35-1.36-86.26,15.9
		c-11.49,5.68-56.59,21.86-72.3,82.28c-7.54,28.98-10.89,52.82-10.07,79.33C229.88,901.11,238.53,909.41,249.06,909.33z"/>
	
		<linearGradient id="SVGID_6_" gradientUnits="userSpaceOnUse" x1="569.2472" y1="694.3418" x2="575.6926" y2="522.6568" gradientTransform="matrix(0.9978 0.0665 -0.0665 0.9978 -140.1072 41.9767)">
		<stop  offset="0" style="stop-color:#AB316D"/>
		<stop  offset="1" style="stop-color:#792D3D"/>
	</linearGradient>
	<path class="st8" d="M363.96,637.43c0,0,6.59,57.76,2.39,68.75c-4.2,11,10.44,25.75,38.64,31.14c28.09,5.37,4.23-57.53,4.23-57.53
		L363.96,637.43z"/>
	
		<linearGradient id="SVGID_7_" gradientUnits="userSpaceOnUse" x1="173.4397" y1="685.9838" x2="169.6939" y2="987.7756" gradientTransform="matrix(0.9959 -0.0901 0.0901 0.9959 159.4429 -48.9208)">
		<stop  offset="0" style="stop-color:#AB316D"/>
		<stop  offset="1" style="stop-color:#792D3D"/>
	</linearGradient>
	<path class="st9" d="M370.13,670.32c0,0,17.58,27.8,51,25.36c33.25-2.43,21.56-79.78,13.06-84.15c-9.87-5.07-23.33,1.56-45.7-1.91
		c-9.44-1.47-18.45-12.52-22.09,0.22c-4.15,14.51-0.13,36.41-0.13,36.41s-10.65-8.99-15.64,0.68
		C346.6,654.72,353.92,664.63,370.13,670.32z"/>
	<path class="st10" d="M1055.1,424.48l-935.89-36.53c25.07,82.21,70.14,180.9,155.18,208.16c72.46,23.22,105.78-27.25,174.47-4.92
		c121.45,39.5,88.35,220.42,226.35,286.55c69.71,33.41,106.36,7.12,184.8,49.92c52.97,28.9,86.14,77.99,107.4,127.19l89.21-5.51
		c13.36-0.83,24.21-14.04,24.18-29.38l-1.38-566.66C1079.38,437.97,1068.46,425,1055.1,424.48z"/>
	<g>
		
			<linearGradient id="SVGID_8_" gradientUnits="userSpaceOnUse" x1="-756.2524" y1="1145.817" x2="-732.1603" y2="1145.817" gradientTransform="matrix(-0.9988 -0.0492 -0.0492 0.9988 19.272 -44.9768)">
			<stop  offset="0" style="stop-color:#AA80F9"/>
			<stop  offset="0.9964" style="stop-color:#6165D7"/>
		</linearGradient>
		<path class="st11" d="M699.39,1126.07c-1.63,2.41-3.62,6.01-4.73,10.71c-0.49,2.06-0.72,3.96-0.82,5.62
			c1.03,2.19,6.24,9.98,14.45,13c5.08,1.87,14.29-1.24,5.61-8.78c-8.68-7.54-9.89-9.22-4.63-24.16c1.35-3.84,1.3-5.34,0.72-5.71
			C708.63,1115.87,703.54,1121.28,699.39,1126.07z"/>
		
			<linearGradient id="SVGID_9_" gradientUnits="userSpaceOnUse" x1="-710.2523" y1="1152.8242" x2="-686.1595" y2="1152.8242" gradientTransform="matrix(-0.9988 -0.0492 -0.0492 0.9988 19.272 -44.9768)">
			<stop  offset="0" style="stop-color:#AA80F9"/>
			<stop  offset="0.9964" style="stop-color:#6165D7"/>
		</linearGradient>
		<path class="st12" d="M653.1,1130.8c-1.63,2.41-3.62,6.01-4.73,10.71c-0.49,2.06-0.72,3.96-0.82,5.62
			c1.03,2.19,6.24,9.98,14.45,13c5.08,1.87,14.29-1.24,5.61-8.78c-8.68-7.54-9.9-9.22-4.63-24.16c1.35-3.84,1.3-5.34,0.72-5.71
			C662.34,1120.6,657.25,1126.02,653.1,1130.8z"/>
		
			<linearGradient id="SVGID_10_" gradientUnits="userSpaceOnUse" x1="-795.6418" y1="972.5789" x2="-649.1746" y2="972.5789" gradientTransform="matrix(-0.9988 -0.0492 -0.0492 0.9988 19.272 -44.9768)">
			<stop  offset="0" style="stop-color:#444B8C"/>
			<stop  offset="0.9964" style="stop-color:#26264F"/>
		</linearGradient>
		<path class="st13" d="M635.8,809.51c-3.85,19.53-7.69,39.05-11.54,58.58c6.47,18.79,12.39,39.23,17.26,61.26
			c17.59,79.57,14.94,150.52,7.34,204.48c4.12,2.27,8.24,4.54,12.36,6.82c12.5-28.34,28.22-70.6,36.96-123.73
			c10.33-62.77,6.23-112.24,9.13-112.32c2.78-0.08,9.13,45.29,7.51,96.81c-1.71,54.46-11.8,99-20.71,129.48
			c5.19,1.14,10.38,2.28,15.56,3.42c21-38.85,43.12-92.14,52.63-157.49c6.61-45.38,14.62-105.69-13.83-169.08
			c-2.84-6.33-13.01-20.5-14.89-23.99C698.49,789.32,670.91,803.94,635.8,809.51z"/>
		
			<linearGradient id="SVGID_11_" gradientUnits="userSpaceOnUse" x1="-774.8097" y1="1003.9496" x2="-633.3281" y2="1003.9496" gradientTransform="matrix(-0.9974 0.0714 0.0714 0.9974 -72.2349 7.8604)">
			<stop  offset="0" style="stop-color:#444B8C"/>
			<stop  offset="0.9964" style="stop-color:#26264F"/>
		</linearGradient>
		<path class="st14" d="M641.53,929.35c-4.87-22.03-10.79-42.47-17.26-61.26c3.85-19.53,7.69-39.05,11.54-58.58
			c35.1-5.57,62.69-20.19,97.79-25.76c1.88,3.48,12.05,17.66,14.89,23.99c9.59,21.37,15.02,42.38,17.78,62.6
			c-67.48-2.88-87.46,10.56-93.25,23.34c-9.22,20.36,16.16,42.1,5.62,83.55c-3.17,12.47-7.5,18.52-8.49,34.23
			c-1.29,20.62,5.38,22.83,5.77,43.86c0.43,23.01-7.16,41.91-13.39,57.41c-3.87,9.64-7.84,17.35-10.79,22.66
			c-0.95-0.52-1.9-1.05-2.85-1.57C656.46,1079.87,659.11,1008.92,641.53,929.35z"/>
	</g>
	
		<linearGradient id="SVGID_12_" gradientUnits="userSpaceOnUse" x1="-495.9276" y1="707.8586" x2="-770.9296" y2="562.9371" gradientTransform="matrix(-1 2.400000e-03 2.400000e-03 1 -23.5183 1.292)">
		<stop  offset="0" style="stop-color:#311944"/>
		<stop  offset="1" style="stop-color:#6B3976"/>
	</linearGradient>
	<path class="st15" d="M694.83,537.95c-2.45,2.66,0.36,6.85-0.42,20.98c-0.36,6.46-1.29,11.82-2.11,15.6
		c-0.47,3.45-0.99,6.65-1.55,9.46c-0.41,2.06-0.79,3.67-1.26,5.37c-0.88,3.16-2,6.26-3.32,9.23c-0.09,0.2-0.01,0.42,0.18,0.53
		c0.01,0.01,0.02,0.01,0.03,0.02c0.21,0.09,0.45,0,0.54-0.21c1.34-3.01,2.47-6.15,3.36-9.35c0.48-1.72,0.86-3.35,1.28-5.43
		c0.29-1.48,0.58-3.08,0.85-4.75c0.01,4.48-0.39,9.39-2.63,15.76c-6.79,19.36,7.29,33.98,19.38,35.74
		c13.94,2.02,24.55-8.11,27.85-11.45c13.31-13.44,18-37.05,8.64-55.62C733.38,539.51,700.82,531.43,694.83,537.95z"/>
	
		<linearGradient id="SVGID_13_" gradientUnits="userSpaceOnUse" x1="-499.065" y1="713.8182" x2="-774.0682" y2="568.8959" gradientTransform="matrix(-1 2.400000e-03 2.400000e-03 1 -23.5183 1.292)">
		<stop  offset="0" style="stop-color:#311944"/>
		<stop  offset="1" style="stop-color:#6B3976"/>
	</linearGradient>
	<path class="st16" d="M728.3,560.63c-0.37-2.28-2.17-11.6-9.87-18.11c-14.62-12.35-40.67-6.26-56.39,4.95
		c-16.45,11.73-11.09,21.53-27.43,34.75c-17.74,14.36-28.36,6.23-52.33,19.41c-9.43,5.18-34.85,19.15-39.02,44.53
		c-3.6,21.93,9.77,45.61,28,56.06c31.22,17.9,74.79-4.02,96.54-26.04c20.85-21.12,8.92-28.01,39.75-69.75
		C718.7,591.35,731.1,577.66,728.3,560.63z"/>
	<path class="st17" d="M745.35,627.38c10.72,13.3,12.46,28.16,12.75,34.75c0.14,3.22,0,5.99-0.37,8.61
		c-2.23,15.58-7.88,25.55-10.65,31.72c-3.55,7.9-1.96,21.79,1.37,49.25c2.21,18.26,4.39,29.85,8.62,53.94
		c2.14,12.18,5.12,29.41,8.61,50.3c-34.87-6.2-62.49-5.03-81.25-2.83c-26.81,3.15-40.36,8.97-79.4,11.71
		c-19.13,1.34-36.62,1.4-56.4-5.32c-4.22-1.43-34.87-11.84-34.62-25.38c0.03-1.6,0.48-3.08,12.69-16.4
		c15.61-17.03,18.76-18.84,21.78-20.06c8.99-3.63,10.69,0.49,19.39-3.08c11.62-4.77,11.18-13.17,22.39-18.85
		c10.5-5.32,15.53-0.3,23.03-3.69c12.2-5.51,15.59-26.34,15.66-70.08c0.04-21.35-0.72-49.46-3.84-82.65
		c7.2-4.16,18.11-9.23,32.07-12.79c14.95-3.81,33.3-5.51,52.46-0.17C719.18,609.01,734.05,613.38,745.35,627.38z"/>
	
		<linearGradient id="SVGID_14_" gradientUnits="userSpaceOnUse" x1="1377.5311" y1="531.991" x2="1381.9178" y2="415.1439" gradientTransform="matrix(0.9964 0.0843 -0.0843 0.9964 -629.2524 25.4149)">
		<stop  offset="0" style="stop-color:#FFC444"/>
		<stop  offset="0.9964" style="stop-color:#F36F56"/>
	</linearGradient>
	<path class="st18" d="M702.96,581.22c2.72,7.29,4.73,16.27,0.37,21.72c-2.65,3.32-6.65,4.91-10.59,6.4
		c-9.31,3.51-13.25,1.3-15.27,3.8c-4.45,5.49,4.19,29.04,21.78,32.79c17.51,3.73,35.49-13.94,33.64-22.36
		c-1.66-7.6-19.32-7.05-21.5-16.66c-1.1-4.84,2.3-9.74,5.18-13l2.07,0.39L702.96,581.22z"/>
	
		<linearGradient id="SVGID_15_" gradientUnits="userSpaceOnUse" x1="-721.3979" y1="655.7901" x2="-717.8055" y2="560.0984" gradientTransform="matrix(-1 2.400000e-03 2.400000e-03 1 -23.5183 1.292)">
		<stop  offset="0" style="stop-color:#FFC444"/>
		<stop  offset="0.9964" style="stop-color:#F36F56"/>
	</linearGradient>
	<path class="st19" d="M677.47,613.13c2.02-2.49,5.95-0.29,15.27-3.8c3.94-1.48,7.94-3.08,10.59-6.4
		c4.36-5.45,2.35-14.43-0.37-21.72l15.68,13.07l-2.07-0.39c-2.28,2.59-4.86,6.22-5.29,10.02c-1.31,0.72-2.44,1.55-3.26,2.37
		c1.82,5.24,2.17,9.65,2.18,12.47c0.03,4.41,0.05,7.68-2.13,10.55c-2.38,3.13-5.98,3.95-9.14,4.66c-7.01,1.59-13.26,0.19-17.32-1.23
		C676.61,625,674.98,616.22,677.47,613.13z"/>
	
		<linearGradient id="SVGID_16_" gradientUnits="userSpaceOnUse" x1="1088.6978" y1="546.2375" x2="1087.5148" y2="641.5497" gradientTransform="matrix(1 -6.500000e-03 6.800000e-03 1.043 -376.843 8.9744)">
		<stop  offset="0" style="stop-color:#FFC444"/>
		<stop  offset="0.9964" style="stop-color:#F36F56"/>
	</linearGradient>
	<path class="st20" d="M707.46,588.68c0,0,0.91,8.94,9.76,8.96c10.91,0.03,12.05-28.75,9.39-30.39c-3.08-1.9-5.76,2.78-12.92,1.17
		c-3.02-0.68-5.63-4.55-7.15-0.37c-1.73,4.76-0.24,13.17-0.24,13.17s-2.6-2.13-2.99,0.44C702.8,585.02,705.33,587.12,707.46,588.68z
		"/>
	
		<linearGradient id="SVGID_17_" gradientUnits="userSpaceOnUse" x1="-489.876" y1="696.3747" x2="-764.8762" y2="551.454" gradientTransform="matrix(-1 2.400000e-03 2.400000e-03 1 -23.5183 1.292)">
		<stop  offset="0" style="stop-color:#311944"/>
		<stop  offset="1" style="stop-color:#6B3976"/>
	</linearGradient>
	<path class="st21" d="M724.63,557.37c3.47,3.52,5.39,10.36,3,13.81c-3.43,4.95-13.64-0.18-17.79,5.87
		c-1.82,2.66-1.71,6.34-2.65,6.28c-0.78-0.05-1.25-2.6-1.71-4.69c-2.52-11.56-5.41-12.85-4.54-16.17
		C702.71,555.73,717.51,550.14,724.63,557.37z"/>
	
		<linearGradient id="SVGID_18_" gradientUnits="userSpaceOnUse" x1="685.9126" y1="720.584" x2="800.9548" y2="720.584" gradientTransform="matrix(1 -2.400000e-03 2.400000e-03 1 -4.1452 1.7957)">
		<stop  offset="0" style="stop-color:#311944"/>
		<stop  offset="0.4695" style="stop-color:#6B3976"/>
	</linearGradient>
	<path class="st22" d="M720.74,674.83l72.35-0.18c3.8-0.01,6.39,3.75,4.94,7.17L764,762.39c-0.82,1.94-2.76,3.21-4.92,3.22
		l-69.64,0.93c-3.75,0.01-6.87-4.41-5.52-7.82l31.87-80.55C716.57,676.16,718.54,674.84,720.74,674.83z"/>
	
		<linearGradient id="SVGID_19_" gradientUnits="userSpaceOnUse" x1="702.9791" y1="805.6978" x2="749.9071" y2="708.3838" gradientTransform="matrix(1 -2.400000e-03 2.400000e-03 1 -4.1452 1.7957)">
		<stop  offset="0" style="stop-color:#311944"/>
		<stop  offset="0.4695" style="stop-color:#6B3976"/>
	</linearGradient>
	<path class="st23" d="M722.75,675.59l70.48-0.17c3.7-0.01,6.23,3.75,4.82,7.17l-33.15,80.56c-0.8,1.94-2.69,3.21-4.79,3.22
		l-68.37,0.17c-3.65,0.01-6.17-3.65-4.86-7.06l31.04-80.55C718.69,676.91,720.61,675.59,722.75,675.59z"/>
	
		<linearGradient id="SVGID_20_" gradientUnits="userSpaceOnUse" x1="757.2599" y1="667.8361" x2="767.7384" y2="687.2142" gradientTransform="matrix(1 -2.400000e-03 2.400000e-03 1 -4.1452 1.7957)">
		<stop  offset="0" style="stop-color:#311944"/>
		<stop  offset="1" style="stop-color:#6B3976"/>
	</linearGradient>
	<path class="st24" d="M743.88,675.26c0.33-1.15,1.39-1.95,2.59-1.95l27.97-0.07c0.88,0,1.57,0.77,1.46,1.65l-1.5,4.49
		c-0.3,0.89-1.13,1.48-2.07,1.47l-27.12-0.39c-1.42-0.02-2.43-1.39-2.04-2.75L743.88,675.26z"/>
	
		<linearGradient id="SVGID_21_" gradientUnits="userSpaceOnUse" x1="759.8378" y1="666.475" x2="770.077" y2="685.4104" gradientTransform="matrix(1 -2.400000e-03 2.400000e-03 1 -4.1452 1.7957)">
		<stop  offset="0" style="stop-color:#311944"/>
		<stop  offset="1" style="stop-color:#6B3976"/>
	</linearGradient>
	<path class="st25" d="M753.91,676.11l2.51-6.2c0.44-1.09,1.5-1.8,2.67-1.81l6.78-0.02c1.08,0,1.84,1.07,1.48,2.09l-2.2,6.2
		L753.91,676.11z"/>
	
		<linearGradient id="SVGID_22_" gradientUnits="userSpaceOnUse" x1="502.3267" y1="573.6604" x2="526.86" y2="573.6604" gradientTransform="matrix(0.9889 0.1485 -0.1485 0.9889 283.4642 72.6704)">
		<stop  offset="0" style="stop-color:#FFC444"/>
		<stop  offset="0.9964" style="stop-color:#F36F56"/>
	</linearGradient>
	<path class="st26" d="M694.18,720.21l10.06-11.52c1.36-1.55,3.41-2.31,5.45-2l11.08,1.66c0,0-1.57,5.19-7.14,5.58
		c-5.58,0.39-7.29,6.88-11.08,9.07c-3.79,2.19-3.79,2.19-3.79,2.19L694.18,720.21z"/>
	<path class="st5" d="M628.99,624.67c10.15-7.76,16.53-8.37,20.9-7.33c13.07,3.14,21.49,24.38,20.72,42.09
		c-1.46,33.49-35.64,50.69-30.47,60.7c2.38,4.62,13.12,7.66,53.88-2.86c2.43,2.87,4.86,5.75,7.3,8.62
		c-3.37,5.13-17.06,24.65-43.35,31.48c-20.59,5.35-49.01,2.93-64.38-14.39C565.15,710.94,598.91,647.67,628.99,624.67z"/>
	
		<linearGradient id="SVGID_23_" gradientUnits="userSpaceOnUse" x1="-522.8593" y1="688.1522" x2="-764.3544" y2="560.8881" gradientTransform="matrix(-1 2.400000e-03 2.400000e-03 1 -23.5183 1.292)">
		<stop  offset="0" style="stop-color:#311944"/>
		<stop  offset="1" style="stop-color:#6B3976"/>
	</linearGradient>
	<path class="st27" d="M706.54,568.05c2.42,2.63-2.85,11.38-13.5,28.76c-6.55,10.7-9.83,16.05-11.93,18.37
		c-11.35,12.46-30.53,22.09-49.95,21.06c-13.33-0.71-15.29-5.83-26.21-3.98c-16.47,2.79-11.75-29.25-20.21-11.81
		c-0.51,1.04,3.39,9.14,24.72-5.82c17.45-12.24,22.22-8.57,49.66-25.53c1.99-1.23,10.42-6.47,22.25-12.38
		C695.28,569.78,704.13,565.43,706.54,568.05z"/>
	<path class="st5" d="M806.21,641.38l34.95-3.38c2.56-0.25,4.78,1.76,4.79,4.34l0.04,16.09c0.01,2.16-1.58,4.01-3.72,4.33
		l-34.94,5.28c-2.64,0.4-5.01-1.64-5.02-4.31l-0.04-17.99C802.25,643.49,803.96,641.6,806.21,641.38z"/>
	
		<linearGradient id="SVGID_24_" gradientUnits="userSpaceOnUse" x1="833.3244" y1="636.918" x2="824.6677" y2="690.5903" gradientTransform="matrix(1 -2.400000e-03 2.400000e-03 1 -4.1452 1.7957)">
		<stop  offset="0" style="stop-color:#AB316D"/>
		<stop  offset="1" style="stop-color:#792D3D"/>
	</linearGradient>
	<path class="st28" d="M824.18,674.74l-1.98-3.58c0,0-6.48-4.13-1.74-11.93c4.74-7.8,3.63-19.58,3.63-19.58l-5.43-1.62
		c0,0,9.07-7.81,16.9,2.99c4.66,6.43-2.15,21.08-2.97,25.1c-0.82,4.01,3.49,11.31,3.49,11.31L824.18,674.74z"/>
	
		<linearGradient id="SVGID_25_" gradientUnits="userSpaceOnUse" x1="953.9222" y1="716.0161" x2="1096.9888" y2="716.0161" gradientTransform="matrix(1 -2.400000e-03 2.400000e-03 1 -4.1452 1.7957)">
		<stop  offset="0" style="stop-color:#AA80F9"/>
		<stop  offset="0.9964" style="stop-color:#6165D7"/>
	</linearGradient>
	<path class="st29" d="M1036.13,634.4c2.93,1.1,47.69,18.77,56.99,65.41c0.75,3.77,8.03,43.84-19.09,72.23
		c-30.41,31.83-89.12,31.19-112.48,4.7c-5.45-6.18-8.33-13.03-9.95-18.8l0,0l6.1-16.33c7.47-9.06,17.66-11.23,23.11-12.59
		c13.42-3.34,23.58,2.61,31.25-3.88c4.25-3.59,5.08-8.75,5.82-13.36c2.53-15.7-6.35-25.33-7.01-35.01
		c-0.5-7.23-3.07-23.08,6.35-33.43C1023.18,636.79,1031.45,634.99,1036.13,634.4z"/>
	
		<linearGradient id="SVGID_26_" gradientUnits="userSpaceOnUse" x1="822.2617" y1="1255.1808" x2="840.5857" y2="1271.48" gradientTransform="matrix(0.9899 -0.1424 0.1424 0.9899 56.9522 20.7181)">
		<stop  offset="0" style="stop-color:#444B8C"/>
		<stop  offset="0.9964" style="stop-color:#26264F"/>
	</linearGradient>
	<path class="st30" d="M1054.82,1154.41c0.51-2.87,9.79-5.5,14.39-1.66c2.29,1.9,3.87,5.77,2.55,7.53
		c-0.48,0.64,1.49,1.75-0.39,1.78C1065.12,1162.14,1054.31,1157.27,1054.82,1154.41z"/>
	
		<linearGradient id="SVGID_27_" gradientUnits="userSpaceOnUse" x1="-85.3173" y1="1271.5079" x2="-85.3173" y2="1239.5861" gradientTransform="matrix(0.9899 -0.1424 0.1424 0.9899 972.8377 -111.03)">
		<stop  offset="0" style="stop-color:#FFC444"/>
		<stop  offset="0.9964" style="stop-color:#F36F56"/>
	</linearGradient>
	<path class="st31" d="M1064.55,1155.43l9.54-1.37c-4.43-5.31-3.66-22.26-3.66-22.26l-10.14,2.29c0,0,1.17,4.65,3.15,11.51
		C1064.12,1147.94,1064.43,1151.62,1064.55,1155.43z"/>
	
		<linearGradient id="SVGID_28_" gradientUnits="userSpaceOnUse" x1="824.1044" y1="1253.1102" x2="842.428" y2="1269.4092" gradientTransform="matrix(0.9899 -0.1424 0.1424 0.9899 56.9522 20.7181)">
		<stop  offset="0" style="stop-color:#444B8C"/>
		<stop  offset="0.9964" style="stop-color:#26264F"/>
	</linearGradient>
	<path class="st32" d="M1063.7,1154.26c0,0,11.48-2.67,12.73-0.4c1.25,2.28,2.23,8.37-5.06,8.19
		C1064.08,1161.88,1063.05,1156.19,1063.7,1154.26z"/>
	
		<linearGradient id="SVGID_29_" gradientUnits="userSpaceOnUse" x1="921.3386" y1="1156.995" x2="939.6639" y2="1173.2955" gradientTransform="matrix(1 -2.400000e-03 2.400000e-03 1 -4.1452 1.7957)">
		<stop  offset="0" style="stop-color:#444B8C"/>
		<stop  offset="0.9964" style="stop-color:#26264F"/>
	</linearGradient>
	<path class="st33" d="M923.93,1165.5c0.91-2.77,10.46-4.07,14.48,0.37c2,2.21,3.02,6.26,1.47,7.81c-0.56,0.56,1.23,1.94-0.64,1.71
		C933.04,1174.6,923.03,1168.26,923.93,1165.5z"/>
	
		<linearGradient id="SVGID_30_" gradientUnits="userSpaceOnUse" x1="13.6798" y1="1173.3615" x2="13.6798" y2="1141.4365" gradientTransform="matrix(1 -2.400000e-03 2.400000e-03 1 921.1649 -0.4586)">
		<stop  offset="0" style="stop-color:#FFC444"/>
		<stop  offset="0.9964" style="stop-color:#F36F56"/>
	</linearGradient>
	<path class="st34" d="M933.42,1167.87l9.64-0.02c-3.65-5.88-0.5-22.55-0.5-22.55l-10.36,0.85c0,0,0.51,4.77,1.51,11.83
		C934.04,1160.4,933.83,1164.08,933.42,1167.87z"/>
	
		<linearGradient id="SVGID_31_" gradientUnits="userSpaceOnUse" x1="-1171.7311" y1="1188.5087" x2="-1291.2262" y2="706.0487" gradientTransform="matrix(-1 2.400000e-03 2.400000e-03 1 -238.398 1.8155)">
		<stop  offset="0" style="stop-color:#444B8C"/>
		<stop  offset="0.9964" style="stop-color:#26264F"/>
	</linearGradient>
	<path class="st35" d="M907.56,803.55c-4.43,14.75-10.74,38.56-14.77,68.42c-11.5,85.17,13.39,87.82,8.97,182.18
		c-1.41,30.12,26.33,99.49,28.77,101.02c1.18,0.11,2.45,0.18,3.81,0.14c2.4-0.08,5.78-0.45,9.71-1.64
		c4.37-0.76,20.01-43.45,16.3-68.81c-2.63-17.94-1.92-37.21-0.52-75.74c0.23-6.24,15.92-121.49,15.92-121.49l0,0
		c4.96,42.63,10.64,78.85,15.55,106.93c15.78,90.22,66.51,144.72,69.16,145.59c0.52,0.21,5.27,1.92,9.15-0.65
		c1.73-1.14,2.31-2.61,2.31-2.61c1.35-1.06-0.62-90.11-16.22-157.09c-22.64-97.22-12.94-120-20.14-163.44
		C1029.31,778.79,907.56,803.55,907.56,803.55z"/>
	
		<linearGradient id="SVGID_32_" gradientUnits="userSpaceOnUse" x1="1016.4344" y1="691.4646" x2="890.5559" y2="819.9384" gradientTransform="matrix(1 -2.400000e-03 2.400000e-03 1 -4.1452 1.7957)">
		<stop  offset="0" style="stop-color:#AA80F9"/>
		<stop  offset="0.9964" style="stop-color:#6165D7"/>
	</linearGradient>
	<path class="st36" d="M997.61,626.9c-14.87-0.4-47.48-3.89-73.17,8c-0.4,0.18,8.84,5.76,6.95,7.99
		c-1.76,2.07-7.79,9.32-13.25,19.11c-3.95,7.09-7.52,15.35-11.11,27.67c-6.33,21.71-8.11,40.19-8.7,48.24
		c-3.33,45.27,0.13,66.15,3.26,80.34c13.46,6.87,48.14,19.15,89.42,12.91c18.85-2.85,33.92-9.16,44.53-14.79
		c-10.79-32.41-2.43-49.79,1.5-65.8c5.6-22.83,5.69-21.1,10.31-39.23c7.61-29.92,8.79-60.48,3.5-66.72
		C1036.58,627.81,1010.93,627.26,997.61,626.9z"/>
	
		<linearGradient id="SVGID_33_" gradientUnits="userSpaceOnUse" x1="923.181" y1="1154.9241" x2="941.5061" y2="1171.2244" gradientTransform="matrix(1 -2.400000e-03 2.400000e-03 1 -4.1452 1.7957)">
		<stop  offset="0" style="stop-color:#444B8C"/>
		<stop  offset="0.9964" style="stop-color:#26264F"/>
	</linearGradient>
	<path class="st37" d="M932.74,1166.59c0,0,11.74-1.04,12.66,1.39c0.92,2.43,1.03,8.6-6.16,7.41
		C932.05,1174.19,931.84,1168.42,932.74,1166.59z"/>
	<g>
		
			<linearGradient id="SVGID_34_" gradientUnits="userSpaceOnUse" x1="990.358" y1="607.7922" x2="970.622" y2="722.4489" gradientTransform="matrix(1 -2.400000e-03 2.400000e-03 1 -4.1452 1.7957)">
			<stop  offset="0" style="stop-color:#AB316D"/>
			<stop  offset="1" style="stop-color:#792D3D"/>
		</linearGradient>
		<path class="st38" d="M955.72,609.95c-4.63-7.78-2.59-16.68-2.14-18.6c1.92-8.05,2.64-9.28,4.13-10.98l2.11-2.24
			c0,0,0.13-0.1,0.27-0.19c1.47-1.01,6.95-2.67,8.13-2.73c3.78-0.2,11.51,13.35,15.97,34.24c0.36,0.74,0.72,1.5,1.07,2.26
			c1.61,3.48,3.06,6.92,4.36,10.3c0.85,2.2,2.85,3.76,5.2,3.98c22.08,2.07,25.28,4.84,25.39,6.48c0.25,3.65-14.31,7.89-25.26,9.53
			c-23.88,3.56-48.46-2.68-48.35-7.14c0.04-1.73,3.82-3.94,19.01-6.31c3.33-0.52,5.63-3.64,5.15-6.97
			c-0.19-1.32-0.38-2.63-0.57-3.94C968.53,617.25,959.12,615.68,955.72,609.95z"/>
		
			<linearGradient id="SVGID_35_" gradientUnits="userSpaceOnUse" x1="971.9131" y1="561.3139" x2="1008.2491" y2="687.6247" gradientTransform="matrix(1 -2.400000e-03 2.400000e-03 1 -4.1452 1.7957)">
			<stop  offset="0" style="stop-color:#311944"/>
			<stop  offset="1" style="stop-color:#893976"/>
		</linearGradient>
		<path class="st39" d="M950.82,574.27c1.74,6.38,6.58,12.38,8.41,13.07c0.24,0.09,1.59,0.67,2.99,1.9
			c0.19,0.17,0.38,0.38,0.57,0.66c2.48,3.65-2.64,10.1-0.92,11.57c1.25,1.07,5.12-1.85,5.94-0.86c0.77,0.93-2.25,4.1-1.35,5.22
			c0.68,0.85,2.66-0.63,4.46,0.46c0.9,0.54,0.85,1.18,2.19,3.22c0.76,1.15,1.72,2.38,2.38,3.03c3.21,3.15,9.83,2.84,10.63,1.02
			c0.22-0.51-0.16-0.78-0.2-2.28c0,0-0.03-1.39,0.47-3.13c0.71-2.5,3.42-4.87,5.96-7.98c4.7-5.77,5.32-9.77,5.47-11.11
			c0.05-0.48,0.07-0.83,0.08-1.08c0.25-5.11-1.6-12.02-4.86-15.7c-5.46-6.16-12.54-0.63-20.98-5.93
			c-9.74-6.11-8.24-18.44-12.66-18.56C954.51,547.64,947.61,562.48,950.82,574.27z"/>
		
			<linearGradient id="SVGID_36_" gradientUnits="userSpaceOnUse" x1="943.5262" y1="572.2352" x2="1042.7675" y2="697.0934" gradientTransform="matrix(1 -2.400000e-03 2.400000e-03 1 -4.1452 1.7957)">
			<stop  offset="0" style="stop-color:#AB316D"/>
			<stop  offset="1" style="stop-color:#792D3D"/>
		</linearGradient>
		<path class="st40" d="M963.76,599.35c0.99-2.57,4.28-1.29,5.04,1.49c0.76,2.78-1.15,6.39-3.91,6.55
			C962.13,607.53,962.43,602.8,963.76,599.35z"/>
	</g>
	<path class="st41" d="M1030.76,795.79c-0.18,0-0.33-0.13-0.35-0.31c-1.81-15.97,1.46-27.55,4.34-37.77c0.7-2.49,1.37-4.85,1.95-7.2
		c3.18-12.97,4.57-17.97,6.05-23.28c0.96-3.44,1.95-7.01,3.49-12.96c0.05-0.19,0.24-0.3,0.43-0.25c0.19,0.05,0.3,0.24,0.25,0.43
		c-1.54,5.96-2.53,9.53-3.49,12.97c-1.47,5.3-2.87,10.3-6.04,23.25c-0.58,2.37-1.25,4.73-1.95,7.23
		c-2.87,10.15-6.12,21.66-4.32,37.5c0.02,0.19-0.12,0.37-0.31,0.39C1030.78,795.78,1030.77,795.79,1030.76,795.79z"/>
	
		<linearGradient id="SVGID_37_" gradientUnits="userSpaceOnUse" x1="1022.4786" y1="697.3898" x2="896.6014" y2="825.8623" gradientTransform="matrix(1 -2.400000e-03 2.400000e-03 1 -4.1452 1.7957)">
		<stop  offset="0" style="stop-color:#AA80F9"/>
		<stop  offset="0.9964" style="stop-color:#6165D7"/>
	</linearGradient>
	<path class="st42" d="M968.77,809.84c-2.82-5.14,0.44-10.66-3.95-21.19c-5.83-13.99-15.37-13.3-19.09-22.45
		c-7.8-19.21,27.62-38.47,21.91-64.07c-2.9-12.98-14.92-21.09-18.22-23.31c-13.93-9.39-27.28-7.02-35.04-9.33
		c-2.52,5.49-4.92,11.91-7.33,20.19c-6.33,21.71-8.11,40.19-8.7,48.24c-3.33,45.27,0.13,66.15,3.26,80.34
		c13.46,6.87,48.14,19.15,89.42,12.91c18.85-2.85,33.92-9.16,44.53-14.79c-0.55-1.66-1.02-3.25-1.48-4.83
		C987.5,821.61,972.7,817.01,968.77,809.84z"/>
	
		<linearGradient id="SVGID_38_" gradientUnits="userSpaceOnUse" x1="950.5165" y1="635.3556" x2="824.6373" y2="763.8301" gradientTransform="matrix(1 -2.400000e-03 2.400000e-03 1 -4.1452 1.7957)">
		<stop  offset="0" style="stop-color:#AA80F9"/>
		<stop  offset="0.9964" style="stop-color:#6165D7"/>
	</linearGradient>
	<path class="st43" d="M841.39,670.9c-1.83-0.65-5.88-1.81-10.95-0.91c-5.27,0.94-8.78,3.59-10.25,4.85
		c-2.32,7.4-5.22,20.09-3.06,35.41c0.87,6.21,5.29,37.62,30.84,51.83c31.08,17.3,66.82-5.66,69.63-7.52
		c36.84-24.46,43.95-77.05,29.86-104.42c-2.05-3.98-6.73-12.77-15.45-15c-12.02-3.08-25.86,7.8-32.83,17.82
		c-6.94,9.98-3.8,14.39-11.9,28.86c-5.04,8.99-10.78,19.26-18.69,20.1C859.1,702.92,847.88,690.25,841.39,670.9z"/>
	<g>
		<g>
			<path class="st44" d="M883.89,572.59c3.94,1.99,8.89,0.14,11.04-4.13c2.15-4.27,0.7-9.34-3.24-11.33
				c-0.2-0.1-0.41-0.19-0.62-0.27c0.73-2.36,1.27-4.74,1.64-7.12c0.23,0,0.45-0.01,0.68-0.03c4.49-0.41,8.05-4.55,7.94-9.24
				c-0.11-4.69-3.83-8.16-8.32-7.75c-0.23,0.02-0.47,0.06-0.69,0.1c-0.48-2.32-1.12-4.59-1.94-6.79c0.21-0.12,0.41-0.25,0.61-0.39
				c3.84-2.7,5.05-8.02,2.72-11.88c-2.34-3.86-7.34-4.79-11.18-2.09c-0.2,0.14-0.38,0.29-0.56,0.44c-1.52-1.67-3.19-3.23-5-4.64
				c0.13-0.21,0.25-0.42,0.36-0.64c2.15-4.27,4.97-8.93,1-10.86c-9.19-4.46-13.12-0.61-15.28,3.66c-0.11,0.22-0.21,0.45-0.3,0.67
				c-2.21-0.61-4.45-1.03-6.7-1.26c0.01-0.24,0.02-0.47,0.02-0.72c-0.11-4.69,1.28-7.24-3.23-7.31c-9.84-0.17-13.14,4.11-13.04,8.8
				c0.01,0.25,0.03,0.49,0.05,0.72c-2.25,0.65-4.46,1.47-6.62,2.47c-0.1-0.21-0.21-0.42-0.33-0.62c-2.34-3.86-7.34-4.79-11.18-2.09
				c-3.84,2.7-5.05,8.02-2.72,11.88c0.12,0.2,0.25,0.38,0.38,0.56c-1.7,1.71-3.29,3.56-4.76,5.55c-0.19-0.12-0.38-0.24-0.59-0.34
				c-3.94-1.99-8.89-0.14-11.04,4.13c-2.15,4.27-0.7,9.34,3.24,11.33c0.2,0.1,0.41,0.19,0.62,0.27c-0.73,2.36-1.27,4.74-1.64,7.12
				c-0.23,0-0.45,0.01-0.68,0.03c-4.49,0.41-8.05,4.55-7.94,9.24c0.11,4.69,3.83,8.16,8.33,7.75c0.23-0.02,0.47-0.06,0.69-0.1
				c0.48,2.32,1.12,4.59,1.94,6.79c-0.21,0.12-0.41,0.25-0.61,0.39c-3.84,2.7-5.05,8.02-2.72,11.88c2.34,3.86,10.05,5.63,13.89,2.93
				c0.2-0.14-2.32-1.13-2.14-1.28c1.52,1.67,3.19,3.23,5,4.64c-0.13,0.21-0.25,0.42-0.36,0.64c-2.15,4.27-0.7,9.34,3.24,11.33
				c3.94,1.99,8.89,0.14,11.04-4.13c0.11-0.22,0.21-0.45,0.3-0.67c2.21,0.61,4.45,1.03,6.7,1.26c-0.01,0.24-0.02,0.47-0.02,0.72
				c0.11,4.69,3.83,8.16,8.32,7.75c4.49-0.41,8.05-4.55,7.94-9.24c-0.01-0.25-0.03-0.48-0.05-0.72c2.25-0.65,4.46-1.47,6.62-2.47
				c0.1,0.21,0.21,0.42,0.33,0.62c2.34,3.86,7.34,4.8,11.18,2.09c3.84-2.7,5.05-8.02,2.72-11.88c-0.12-0.2-0.25-0.38-0.38-0.56
				c1.7-1.71,3.29-3.56,4.76-5.55C883.49,572.37,883.68,572.49,883.89,572.59z M834.8,573.33c-14.32-7.22-19.58-25.65-11.76-41.15
				c7.82-15.5,25.77-22.21,40.09-14.99c14.32,7.23,19.58,25.65,11.76,41.15C867.06,573.85,849.11,580.56,834.8,573.33z"/>
			<path class="st44" d="M893.39,549.71c4.49-0.41,8.05-4.55,7.94-9.24c-0.11-4.69-3.83-8.16-8.32-7.75
				c-0.23,0.02-0.47,0.06-0.69,0.1c-0.48-2.32-1.12-4.59-1.94-6.79c0.21-0.12,0.41-0.25,0.61-0.39c3.84-2.7,8.58-9.22,5.86-12.82
				c-5.16-6.83-10.48-3.85-14.32-1.15c-0.2,0.14-0.38,0.29-0.56,0.44c-1.52-1.67-3.19-3.23-5-4.64c0.13-0.21,0.25-0.42,0.36-0.64
				c1.17-2.32,1.27-4.88,0.49-7.06c-3.7,6.54-7.34,13.12-10.93,19.72c11.43,8.33,15.1,24.79,8,38.86
				c-6.01,11.92-18.01,18.63-29.74,17.82c-0.52,1.36-1.03,2.72-1.59,4.07c-1.51,3.65-3.23,7.23-4.95,10.8
				c1.09,0.2,2.18,0.36,3.28,0.47c-0.01,0.24-0.02,0.47-0.02,0.72c0.11,4.69,2.96,8.67,11.11,8.22c4.5-0.25,5.27-5.02,5.16-9.71
				c-0.01-0.25-0.03-0.48-0.05-0.72c2.25-0.65,4.46-1.47,6.62-2.47c0.1,0.21,0.21,0.42,0.33,0.62c2.34,3.86,10.42,5.48,14.26,2.78
				c3.84-2.7,1.98-8.71-0.36-12.56c-0.12-0.2-0.25-0.38-0.38-0.56c1.7-1.71,3.29-3.56,4.76-5.55c0.19,0.12,0.38,0.24,0.59,0.34
				c3.94,1.99,8.89,0.14,11.04-4.13c2.15-4.27,0.7-9.34-3.24-11.33c-0.2-0.1-0.41-0.19-0.62-0.27c0.73-2.36,1.27-4.74,1.64-7.12
				C892.93,549.73,893.16,549.73,893.39,549.71z"/>
			<path class="st5" d="M888.13,573.06c3.94,1.99,8.89,0.14,11.04-4.13c2.15-4.27,0.7-9.34-3.24-11.33c-0.2-0.1-0.41-0.19-0.62-0.27
				c0.73-2.36,1.27-4.74,1.64-7.12c0.23,0,0.45-0.01,0.68-0.03c4.49-0.41,8.05-4.55,7.94-9.24c-0.11-4.69-3.83-8.16-8.32-7.75
				c-0.23,0.02-0.47,0.06-0.69,0.1c-0.47-2.32-1.12-4.59-1.94-6.79c0.21-0.12,0.41-0.25,0.61-0.39c3.84-2.7,5.05-8.02,2.72-11.88
				c-2.34-3.86-7.34-4.79-11.18-2.09c-0.2,0.14-0.38,0.29-0.56,0.44c-1.52-1.67-3.19-3.23-5-4.64c0.13-0.21,0.25-0.42,0.36-0.64
				c2.15-4.27,0.7-9.34-3.24-11.33c-3.94-1.99-8.89-0.14-11.04,4.13c-0.11,0.22-0.21,0.45-0.3,0.67c-2.21-0.61-4.45-1.03-6.7-1.26
				c0.01-0.24,0.02-0.47,0.02-0.72c-0.11-4.69-3.83-8.16-8.32-7.75c-4.49,0.41-8.05,4.55-7.94,9.24c0.01,0.25,0.03,0.49,0.05,0.72
				c-2.25,0.65-4.46,1.47-6.62,2.47c-0.1-0.21-0.21-0.42-0.33-0.62c-2.34-3.86-7.34-4.79-11.18-2.09c-3.84,2.7-5.05,8.02-2.72,11.88
				c0.12,0.2,0.25,0.38,0.38,0.56c-1.7,1.71-3.29,3.56-4.76,5.55c-0.19-0.12-0.38-0.24-0.59-0.34c-3.94-1.99-8.89-0.14-11.04,4.13
				c-2.15,4.27-0.71,9.34,3.24,11.33c0.2,0.1,0.41,0.19,0.62,0.27c-0.73,2.36-1.27,4.74-1.64,7.12c-0.23,0-0.45,0.01-0.68,0.03
				c-4.49,0.41-8.05,4.55-7.94,9.24c0.11,4.69,3.83,8.16,8.32,7.75c0.23-0.02,0.47-0.06,0.69-0.1c0.48,2.32,1.12,4.59,1.94,6.79
				c-0.21,0.12-0.41,0.25-0.61,0.39c-3.84,2.7-5.05,8.02-2.72,11.88c2.34,3.86,7.34,4.79,11.18,2.09c0.2-0.14,0.38-0.29,0.56-0.44
				c1.52,1.67,3.19,3.23,5,4.64c-0.13,0.21-0.25,0.42-0.36,0.64c-2.15,4.27-0.7,9.34,3.24,11.33c3.94,1.99,8.89,0.14,11.04-4.13
				c0.11-0.22,0.21-0.45,0.3-0.67c2.21,0.61,4.45,1.03,6.7,1.26c-0.01,0.24-0.02,0.47-0.02,0.72c0.11,4.69,3.83,8.16,8.33,7.75
				c4.49-0.41,8.05-4.55,7.94-9.24c-0.01-0.25-0.03-0.48-0.05-0.72c2.25-0.65,4.46-1.47,6.62-2.47c0.1,0.21,0.21,0.42,0.33,0.62
				c2.34,3.86,7.34,4.8,11.18,2.09c3.84-2.7,5.05-8.02,2.72-11.88c-0.12-0.2-0.25-0.38-0.38-0.56c1.7-1.71,3.29-3.56,4.76-5.55
				C887.73,572.84,887.92,572.96,888.13,573.06z M839.03,573.8c-14.32-7.22-19.58-25.65-11.76-41.15
				c7.82-15.5,25.77-22.21,40.09-14.99c14.32,7.22,19.58,25.65,11.76,41.15C871.3,574.32,853.35,581.03,839.03,573.8z"/>
		</g>
		<g>
			<path class="st44" d="M1010.8,455.11c6.73,3.4,15.16,0.24,18.84-7.04c3.68-7.28,1.2-15.94-5.52-19.34
				c-0.35-0.18-0.7-0.32-1.06-0.46c1.24-4.03,2.17-8.09,2.79-12.15c0.39,0,0.77-0.01,1.16-0.05c7.66-0.7,13.73-7.76,13.55-15.77
				c-0.18-8.01-6.54-13.93-14.2-13.23c-0.4,0.04-0.79,0.1-1.19,0.17c-0.81-3.97-1.92-7.84-3.31-11.59c0.35-0.21,0.7-0.42,1.04-0.66
				c6.55-4.61,8.62-13.68,4.63-20.27c-3.99-6.58-12.53-8.18-19.08-3.57c-0.34,0.24-0.65,0.49-0.96,0.75
				c-2.6-2.86-5.44-5.5-8.52-7.92c0.22-0.35,0.43-0.71,0.62-1.09c3.68-7.28,8.48-15.24,1.7-18.53c-15.68-7.61-22.39-1.05-26.07,6.24
				c-0.19,0.38-0.35,0.76-0.51,1.14c-3.77-1.04-7.59-1.76-11.43-2.15c0.02-0.4,0.04-0.81,0.03-1.22
				c-0.18-8.01,2.18-12.34-5.51-12.48c-16.78-0.29-22.42,7.01-22.24,15.02c0.01,0.42,0.05,0.83,0.09,1.23
				c-3.84,1.11-7.62,2.52-11.29,4.22c-0.18-0.36-0.36-0.71-0.57-1.06c-3.99-6.58-12.53-8.18-19.08-3.57
				c-6.55,4.61-8.62,13.68-4.63,20.27c0.2,0.34,0.43,0.65,0.66,0.96c-2.9,2.91-5.61,6.07-8.11,9.46c-0.33-0.2-0.66-0.4-1-0.58
				c-6.73-3.4-15.16-0.24-18.84,7.04c-3.68,7.28-1.2,15.94,5.52,19.34c0.35,0.18,0.7,0.32,1.06,0.46
				c-1.24,4.03-2.17,8.09-2.79,12.15c-0.39,0-0.77,0.01-1.16,0.05c-7.66,0.7-13.73,7.76-13.55,15.77
				c0.18,8.01,6.54,13.93,14.2,13.22c0.4-0.04,0.79-0.1,1.18-0.17c0.81,3.97,1.92,7.84,3.31,11.59c-0.35,0.21-0.7,0.42-1.04,0.66
				c-6.55,4.61-8.62,13.68-4.63,20.27c3.99,6.58,17.14,9.61,23.69,5c0.34-0.24-3.97-1.92-3.65-2.18c2.6,2.86,5.44,5.5,8.52,7.92
				c-0.22,0.35-0.43,0.71-0.62,1.09c-3.68,7.28-1.2,15.94,5.52,19.34c6.73,3.39,15.16,0.24,18.84-7.04
				c0.19-0.38,0.35-0.76,0.51-1.14c3.77,1.04,7.59,1.76,11.43,2.15c-0.02,0.4-0.04,0.81-0.03,1.22c0.18,8.01,6.54,13.93,14.2,13.22
				c7.66-0.7,13.73-7.76,13.55-15.77c-0.01-0.42-0.05-0.83-0.09-1.23c3.84-1.11,7.62-2.52,11.29-4.22c0.18,0.36,0.36,0.71,0.57,1.06
				c3.99,6.58,12.53,8.18,19.08,3.57c6.55-4.61,8.62-13.68,4.63-20.27c-0.2-0.34-0.43-0.65-0.66-0.96c2.9-2.91,5.61-6.07,8.11-9.46
				C1010.13,454.74,1010.46,454.93,1010.8,455.11z M927.05,456.38c-24.43-12.33-33.41-43.76-20.06-70.21
				c13.35-26.45,43.97-37.9,68.39-25.57c24.43,12.33,33.41,43.76,20.06,70.21C982.09,457.26,951.47,468.7,927.05,456.38z"/>
			<path class="st44" d="M1027.01,416.07c7.66-0.7,13.73-7.76,13.55-15.77s-6.54-13.93-14.2-13.23c-0.4,0.04-0.79,0.1-1.19,0.17
				c-0.81-3.97-1.92-7.84-3.31-11.59c0.35-0.21,0.7-0.42,1.04-0.66c6.55-4.61,14.63-15.73,9.99-21.87
				c-8.81-11.65-17.89-6.58-24.43-1.97c-0.34,0.24-0.65,0.49-0.96,0.75c-2.6-2.86-5.45-5.5-8.53-7.92c0.22-0.35,0.43-0.71,0.62-1.09
				c2-3.96,2.17-8.33,0.83-12.04c-6.31,11.16-12.53,22.38-18.64,33.65c19.5,14.21,25.76,42.3,13.65,66.29
				c-10.26,20.33-30.72,31.78-50.74,30.4c-0.89,2.32-1.76,4.65-2.71,6.94c-2.58,6.23-5.51,12.33-8.45,18.42
				c1.86,0.35,3.72,0.62,5.59,0.81c-0.02,0.4-0.04,0.81-0.03,1.22c0.18,8.01,5.06,14.8,18.95,14.03c7.68-0.43,8.99-8.56,8.81-16.57
				c-0.01-0.42-0.05-0.83-0.09-1.23c3.84-1.11,7.62-2.52,11.29-4.22c0.18,0.36,0.36,0.71,0.57,1.06c3.99,6.58,17.77,9.35,24.32,4.74
				c6.55-4.61,3.38-14.85-0.61-21.44c-0.2-0.34-0.43-0.65-0.66-0.96c2.9-2.91,5.61-6.07,8.11-9.46c0.33,0.2,0.66,0.4,1,0.58
				c6.73,3.4,15.16,0.24,18.84-7.04c3.68-7.28,1.2-15.94-5.52-19.34c-0.35-0.18-0.7-0.32-1.06-0.46c1.24-4.03,2.17-8.09,2.79-12.15
				C1026.23,416.12,1026.62,416.11,1027.01,416.07z"/>
			<path class="st5" d="M1018.03,455.91c6.73,3.4,15.16,0.24,18.84-7.04c3.68-7.28,1.2-15.94-5.52-19.34
				c-0.35-0.18-0.7-0.32-1.06-0.46c1.24-4.03,2.17-8.09,2.79-12.15c0.39,0,0.77-0.01,1.16-0.05c7.66-0.7,13.73-7.76,13.55-15.77
				c-0.18-8.01-6.54-13.93-14.2-13.23c-0.4,0.04-0.79,0.1-1.19,0.17c-0.81-3.97-1.92-7.84-3.31-11.59c0.35-0.21,0.7-0.42,1.04-0.66
				c6.55-4.61,8.62-13.68,4.63-20.27c-3.99-6.58-12.53-8.18-19.08-3.57c-0.34,0.24-0.65,0.49-0.96,0.75
				c-2.6-2.86-5.44-5.5-8.52-7.92c0.22-0.35,0.43-0.71,0.62-1.09c3.68-7.28,1.2-15.94-5.52-19.34c-6.73-3.4-15.16-0.24-18.84,7.04
				c-0.19,0.38-0.35,0.76-0.51,1.14c-3.77-1.04-7.59-1.76-11.43-2.15c0.02-0.4,0.04-0.81,0.03-1.22
				c-0.18-8.01-6.54-13.93-14.2-13.22c-7.66,0.7-13.73,7.76-13.55,15.77c0.01,0.42,0.05,0.83,0.09,1.23
				c-3.84,1.11-7.62,2.52-11.29,4.22c-0.18-0.36-0.36-0.71-0.57-1.06c-3.99-6.58-12.53-8.18-19.08-3.57
				c-6.55,4.61-8.62,13.68-4.63,20.27c0.2,0.34,0.43,0.65,0.66,0.96c-2.9,2.91-5.61,6.07-8.11,9.46c-0.33-0.2-0.66-0.4-1-0.58
				c-6.73-3.39-15.16-0.24-18.84,7.04c-3.68,7.28-1.2,15.94,5.52,19.34c0.35,0.18,0.7,0.32,1.06,0.46
				c-1.24,4.03-2.17,8.09-2.79,12.15c-0.39,0-0.77,0.01-1.16,0.04c-7.66,0.7-13.73,7.76-13.55,15.77
				c0.18,8.01,6.54,13.93,14.2,13.22c0.4-0.04,0.79-0.1,1.18-0.17c0.81,3.97,1.92,7.84,3.31,11.59c-0.35,0.21-0.7,0.42-1.04,0.66
				c-6.55,4.61-8.62,13.68-4.63,20.27c3.99,6.58,12.53,8.18,19.08,3.57c0.34-0.24,0.65-0.49,0.96-0.75c2.6,2.86,5.45,5.5,8.52,7.92
				c-0.21,0.35-0.43,0.71-0.62,1.09c-3.68,7.28-1.2,15.94,5.52,19.34c6.73,3.39,15.16,0.24,18.84-7.04
				c0.19-0.38,0.35-0.76,0.51-1.14c3.77,1.04,7.59,1.76,11.43,2.15c-0.02,0.4-0.04,0.81-0.03,1.22c0.18,8.01,6.54,13.93,14.2,13.22
				c7.66-0.7,13.73-7.76,13.55-15.77c-0.01-0.42-0.05-0.83-0.09-1.23c3.84-1.11,7.62-2.52,11.29-4.22c0.18,0.36,0.36,0.71,0.57,1.05
				c3.99,6.58,12.53,8.18,19.08,3.57c6.55-4.61,8.62-13.68,4.63-20.27c-0.2-0.34-0.43-0.65-0.66-0.96c2.9-2.91,5.61-6.07,8.11-9.46
				C1017.35,455.54,1017.68,455.74,1018.03,455.91z M934.28,457.18c-24.43-12.33-33.41-43.76-20.06-70.21
				c13.35-26.45,43.97-37.9,68.39-25.57c24.43,12.33,33.41,43.76,20.06,70.21C989.32,458.06,958.7,469.51,934.28,457.18z"/>
		</g>
	</g>
	<linearGradient id="SVGID_39_" gradientUnits="userSpaceOnUse" x1="434.7693" y1="115.5128" x2="342.9187" y2="203.7964">
		<stop  offset="0" style="stop-color:#9D18FE"/>
		<stop  offset="1" style="stop-color:#CB3DFF"/>
	</linearGradient>
	<path class="st45" d="M251.5,528.32c-8.1,0.23-16.01-1.81-22.85-5.91c-20.86-12.5-51.67-33.15-79.4-60.18
		c-35.18-34.3-55.4-69.16-59.82-103.39l-0.07-0.54L88.5,212.23c0-28.87,18.83-52.3,54.18-67.7c29.21-12.72,67.92-19.03,108.82-17.84
		c40.42,1.17,77.82,9.51,105.51,23.41c32.91,16.52,50.18,39.74,50.18,67.26l-0.78,139.57l-0.06,0.51
		c-4.04,32.78-22.64,66.67-55.51,100.93c-26.37,27.48-56.16,49.26-76.62,62.76C267.43,525.6,259.58,528.09,251.5,528.32z"/>
	<linearGradient id="SVGID_40_" gradientUnits="userSpaceOnUse" x1="161.7744" y1="135.6295" x2="473.9969" y2="646.2899">
		<stop  offset="0" style="stop-color:#9D18FE"/>
		<stop  offset="1" style="stop-color:#CB3DFF"/>
	</linearGradient>
	<path class="st46" d="M259.52,528.32c-8,0.23-15.79-1.81-22.55-5.91c-20.58-12.5-50.99-33.15-78.35-60.18
		c-34.72-34.3-54.66-69.16-59.03-103.39l-0.07-0.54l-0.85-146.07c0-28.87,18.58-52.3,53.47-67.7
		c28.82-12.72,67.02-19.03,107.38-17.84c39.89,1.17,76.8,9.51,104.11,23.41c32.47,16.52,49.51,39.74,49.51,67.26l-0.77,139.57
		l-0.06,0.51c-3.99,32.78-22.34,66.67-54.78,100.93c-26.02,27.48-55.42,49.26-75.61,62.76C275.24,525.6,267.5,528.09,259.52,528.32z
		"/>
	<path class="st47" d="M108.32,212.33l0.85,145.34c9.57,74.15,96.71,134.19,134.67,157c10.87,6.53,24.77,6.15,35.57-0.96
		c37.16-24.45,119.54-86.02,128.34-157.31l0.78-139.19C408.54,113.94,108.32,104.5,108.32,212.33z"/>
	<path class="st5" d="M261.67,492.27c-0.7,0.02-1.75-0.1-2.81-0.74c-15.63-9.46-45.92-29.29-72.28-55.17
		c-28.47-27.96-44.89-55.15-48.65-80.69l-0.84-142.93c0.03-13.71,10.89-25.45,32.17-34.84c23.76-10.48,57.49-15.99,92.41-15.16
		c34.57,0.82,67.32,7.78,90.01,19.04c20.07,9.96,30.22,21.7,30.25,34.94l-0.78,137.98c-3.51,24.71-18.92,51.35-45.98,79.35
		c-25.44,26.33-55.16,47.2-70.69,57.35C263.42,492.09,262.37,492.25,261.67,492.27z"/>
	<linearGradient id="SVGID_41_" gradientUnits="userSpaceOnUse" x1="143.0711" y1="327.0898" x2="369.4511" y2="327.0898">
		<stop  offset="0" style="stop-color:#9D18FE"/>
		<stop  offset="1" style="stop-color:#CB3DFF"/>
	</linearGradient>
	<path class="st48" d="M258.11,482.5c-15.78-9.72-43.85-28.49-68.33-52.59c-26.75-26.33-42.23-51.59-45.87-74.97l-0.83-142.1
		c0.02-9.81,9.04-18.8,26.72-26.63c22.5-9.96,54.75-15.22,88.32-14.46c33.25,0.75,64.59,7.31,86.12,17.97
		c16.73,8.28,25.2,17.31,25.22,26.87l-0.78,137.47c-3.41,22.68-18.02,47.49-43.55,73.87C301.41,452.43,273.82,472.12,258.11,482.5z"
		/>
	<g>
		<path class="st5" d="M314.58,296.45L208.3,297.4c-8.17,0.07-14.83,6.44-14.83,14.22v68.09c0,7.73,6.63,13.73,14.77,13.4
			l105.9-4.34c7.53-0.31,13.64-6.54,13.68-13.93l0.34-65.05C328.21,302.36,322.14,296.39,314.58,296.45z"/>
		<linearGradient id="SVGID_42_" gradientUnits="userSpaceOnUse" x1="286.95" y1="261.0127" x2="251.6609" y2="376.7612">
			<stop  offset="0" style="stop-color:#AA80F9"/>
			<stop  offset="0.9964" style="stop-color:#6165D7"/>
		</linearGradient>
		<path class="st49" d="M275.98,335.5c0.02-7.52-6.43-13.47-14.31-12.97c-6.98,0.44-12.77,6.08-13.16,12.84
			c-0.3,5.25,2.53,9.79,6.85,12.1c1.84,0.98,2.74,3.04,2.38,5.07l-3.07,17.2c-0.39,2.19,1.34,4.12,3.63,4.04l7.77-0.27
			c2.27-0.08,4-2.12,3.63-4.27l-2.97-17.04c-0.35-2.03,0.69-4.05,2.54-5.16C273.28,344.62,275.97,340.34,275.98,335.5z"/>
		<path class="st5" d="M313.09,289.7c-3.19,0.02-5.77-2.51-5.76-5.66l0.06-14.83c0.07-14.9-12.25-27.15-27.6-27.31l-34.69-0.34
			c-15.89-0.16-28.95,12.23-28.96,27.6l-0.01,15.3c0,3.25-2.77,5.9-6.19,5.92c-3.42,0.02-6.2-2.6-6.2-5.87l0.01-15.37
			c0.01-21.97,18.71-39.6,41.38-39.29l34.71,0.48c21.8,0.3,39.22,17.75,39.12,38.87l-0.07,14.77
			C318.86,287.12,316.27,289.68,313.09,289.7z"/>
	</g>
</g>
</svg>
