<?xml version="1.0" encoding="utf-8"?>
<!-- Generator: Adobe Illustrator 24.3.0, SVG Export Plug-In . SVG Version: 6.00 Build 0)  -->
<svg version="1.1" id="Layer_1" xmlns="http://www.w3.org/2000/svg" xmlns:xlink="http://www.w3.org/1999/xlink" x="0px" y="0px"
	 viewBox="0 0 1200 1200" style="enable-background:new 0 0 1200 1200;" xml:space="preserve">
<style type="text/css">
	.st0{fill:url(#SVGID_1_);}
	.st1{opacity:0.8;}
	.st2{fill:#FFFFFF;}
	.st3{fill:url(#SVGID_2_);}
	.st4{fill:url(#SVGID_3_);}
	.st5{fill:url(#SVGID_4_);}
	.st6{fill:url(#SVGID_5_);}
	.st7{opacity:0.3;fill:#9D18FE;}
	.st8{fill:#231F20;}
	.st9{fill:#9D18FE;}
	.st10{fill:url(#SVGID_6_);}
	.st11{fill:url(#SVGID_7_);}
	.st12{opacity:0.4;fill:#FFFFFF;}
	.st13{fill:#CB3DFF;}
	.st14{fill:url(#SVGID_8_);}
	.st15{fill:url(#SVGID_9_);}
	.st16{fill:#F4F7FA;}
	.st17{fill:url(#SVGID_10_);}
	.st18{fill:url(#SVGID_11_);}
	.st19{fill:url(#SVGID_12_);}
	.st20{fill:url(#SVGID_13_);}
	.st21{fill:url(#SVGID_14_);}
	.st22{fill:url(#SVGID_15_);}
	.st23{fill:url(#SVGID_16_);}
	.st24{fill:url(#SVGID_17_);}
	.st25{opacity:0.3;fill:url(#SVGID_18_);}
	.st26{fill:url(#SVGID_19_);}
	.st27{fill:url(#SVGID_20_);}
	.st28{fill:url(#SVGID_21_);}
	.st29{opacity:0.3;}
	.st30{fill:url(#SVGID_22_);}
	.st31{fill:url(#SVGID_23_);}
	.st32{fill:url(#SVGID_24_);}
	.st33{fill:url(#SVGID_25_);}
	.st34{fill:url(#SVGID_26_);}
	.st35{fill:url(#SVGID_27_);}
	.st36{fill:url(#SVGID_28_);}
	.st37{fill:#AABBCC;}
	.st38{clip-path:url(#SVGID_30_);}
	.st39{fill:url(#SVGID_31_);}
	.st40{fill:url(#SVGID_32_);}
	.st41{fill:url(#SVGID_33_);}
	.st42{fill:url(#SVGID_34_);}
	.st43{fill:url(#SVGID_35_);}
</style>
<g>
	
		<linearGradient id="SVGID_1_" gradientUnits="userSpaceOnUse" x1="1672.0029" y1="1062.8376" x2="1949.4297" y2="1062.8376" gradientTransform="matrix(-1 0 0 1 2819.4094 0)">
		<stop  offset="0.3422" style="stop-color:#9D18FE"/>
		<stop  offset="0.8897" style="stop-color:#CB3DFF"/>
	</linearGradient>
	<path class="st0" d="M923.65,1144.44c-5.29-0.75-10.56-1.62-15.81-2.46c-14.67-2.35-32.84-6.92-37.46-23.29
		c-1.31-4.66,0.95-12.98,1.49-17.83c0.55-4.94,1.26-9.87,2.41-14.71c1.59-6.68,4.13-12.97,7.43-18.98
		c5.71-10.42,12.24-18.26,24.4-20.62c8.87-1.72,18.69-2.12,27.7-1.83c49.12,1.61,55.16-16.11,82.14-53.95
		c26.98-37.85,204.54,23.35,97.44,90.59c0,0-16.11,10.47-74.89,3.62c-10.75-1.25-24.35-2.08-33.47,4.87
		c-16.08,12.27,0.09,38.26-16.14,48.46c-9.47,5.95-24.68,7.7-35.55,8.11C943.4,1146.81,933.49,1145.83,923.65,1144.44z"/>
	<g class="st1">
		<path class="st2" d="M890.86,1124.17c0.37,0,0.74-0.17,0.98-0.5c0.31-0.43,31.4-42.7,75.52-52.68
			c17.26-3.9,32.17-12.64,46.6-21.08c24.32-14.24,47.3-27.7,81.2-20.78c0.66,0.13,1.29-0.29,1.42-0.94
			c0.13-0.65-0.29-1.29-0.94-1.42c-34.81-7.1-59.26,7.22-82.91,21.07c-14.27,8.35-29.02,16.99-45.91,20.81
			c-45.02,10.18-76.63,53.18-76.94,53.62c-0.39,0.54-0.27,1.3,0.27,1.69C890.37,1124.1,890.62,1124.17,890.86,1124.17z"/>
	</g>
	
		<linearGradient id="SVGID_2_" gradientUnits="userSpaceOnUse" x1="618.4272" y1="1070.3994" x2="675.43" y2="1137.7662" gradientTransform="matrix(-1 0 0 1 856.6823 0)">
		<stop  offset="0" style="stop-color:#444B8C"/>
		<stop  offset="0.9964" style="stop-color:#3E4177"/>
	</linearGradient>
	<path class="st3" d="M187.76,1103.36c0,0,32.93,4.17,34.19,11.65c1.46,8.69-36.61,1.06-36.61,1.06S179.5,1114.16,187.76,1103.36z"
		/>
	
		<linearGradient id="SVGID_3_" gradientUnits="userSpaceOnUse" x1="660.5239" y1="1077.8044" x2="663.7628" y2="1123.7952" gradientTransform="matrix(-1 0 0 1 856.6823 0)">
		<stop  offset="0" style="stop-color:#311944"/>
		<stop  offset="1" style="stop-color:#893976"/>
	</linearGradient>
	<path class="st4" d="M189.86,1085.56l-0.8,18.38c0,0,4.02,5.1,8.64,1.41l3.68-19.79H189.86z"/>
	
		<linearGradient id="SVGID_4_" gradientUnits="userSpaceOnUse" x1="582.7765" y1="1100.5658" x2="639.779" y2="1167.9323" gradientTransform="matrix(-1 0 0 1 856.6823 0)">
		<stop  offset="0" style="stop-color:#444B8C"/>
		<stop  offset="0.9964" style="stop-color:#3E4177"/>
	</linearGradient>
	<path class="st5" d="M241.4,1112.27c0,0,32.93,4.17,34.19,11.65c1.46,8.69-36.61,1.06-36.61,1.06S233.15,1123.06,241.4,1112.27z"/>
	
		<linearGradient id="SVGID_5_" gradientUnits="userSpaceOnUse" x1="606.5208" y1="1081.6075" x2="609.7595" y2="1127.5983" gradientTransform="matrix(-1 0 0 1 856.6823 0)">
		<stop  offset="0" style="stop-color:#311944"/>
		<stop  offset="1" style="stop-color:#893976"/>
	</linearGradient>
	<path class="st6" d="M243.5,1094.46l-0.8,18.38c0,0,4.02,5.1,8.64,1.41l3.68-19.79H243.5z"/>
	<g>
		<path class="st7" d="M515.29,31.32C363.78,34,129.37,91.6,61.9,239.64c-23.57,51.7-21.97,127.71-18.78,279.73
			c0.94,44.68,2.49,109.81,13.41,190.61c22.69,167.86,38.13,282.13,96.58,348.67c146.46,166.73,675.5,161.91,901.41-138.25
			c123.24-163.74,142.2-396.67,29.51-589.17C959.97,119.29,718.12,27.74,515.29,31.32z"/>
		<path class="st8" d="M608.29,115.4l-110.12,915.26c-1.65,13.72,7.81,26.02,21.06,27.34l458.65,50.35
			c28.1,1.75,43.48-12.61,45.21-27.2l115.61-973.08c1.72-14.51-12.06-27.65-40.28-27.65l-462.82,9.75
			C622.21,90.4,609.93,101.75,608.29,115.4z"/>
		<path class="st8" d="M587.65,113.83l-110.72,919.84c-1.66,13.79,7.83,26.16,21.13,27.48l475.49,47.34
			c14.91,1.48,28.57-9.3,30.31-23.97l116.26-978.11c1.73-14.59-9.22-26.31-24.29-26.06l-480.76,8.11
			C601.62,88.7,589.3,100.11,587.65,113.83z"/>
		<path class="st9" d="M596.67,164.56l-102.62,852.88c-1.55,12.89,7.34,24.42,19.79,25.63l447.18,43.47
			c13.86,1.35,26.56-8.72,28.18-22.37l107.44-903.54c1.62-13.58-8.55-24.57-22.55-24.42l-451.77,4.81
			C609.74,141.14,598.22,151.74,596.67,164.56z"/>
		
			<linearGradient id="SVGID_6_" gradientUnits="userSpaceOnUse" x1="133.5429" y1="77.7008" x2="-391.7363" y2="1500.3318" gradientTransform="matrix(-1 0 0 1 965.8816 0)">
			<stop  offset="0" style="stop-color:#FFC444"/>
			<stop  offset="0.9964" style="stop-color:#F36F56"/>
		</linearGradient>
		<path class="st10" d="M836.47,113.2c-0.59,4.9,2.93,8.82,7.85,8.75c4.93-0.06,9.41-4.09,10-9c0.59-4.91-2.94-8.83-7.87-8.75
			C841.53,104.27,837.06,108.3,836.47,113.2z"/>
		<g>
			<linearGradient id="SVGID_7_" gradientUnits="userSpaceOnUse" x1="451.7323" y1="584.6783" x2="1032.2393" y2="584.6783">
				<stop  offset="0" style="stop-color:#311944"/>
				<stop  offset="1" style="stop-color:#893976"/>
			</linearGradient>
			<path class="st11" d="M1011.21,219.45l2.24,12.06h0l-46,0.11l-399.21,0.95c-10.27,0.02-19.72,8.51-21.12,18.96l-95.3,636.91
				c-1.42,10.54,14.99,26.63,25.2,27.42l177.11,13.61v-0.21l264.92,20.33c0.01,0,0.01,0,0.01,0l0.64,0.27
				c11.31,0.87,21.69-7.34,23.16-18.47c0,0,0,0.05,0,0.04l89.25-680.01C1033.56,240.38,1022.59,219.42,1011.21,219.45z"/>
			<g>
				<path class="st2" d="M933.83,918.12c-1.46,11.14-11.84,19.46-23.15,18.59l-443.14-34.03c-10.2-0.78-17.31-9.96-15.89-20.51
					l86.63-643.68c1.41-10.45,10.85-18.94,21.11-18.96l445.64-1.23c11.37-0.03,19.44,8.88,17.99,19.92L933.83,918.12z"/>
				<path class="st12" d="M1023.03,238.23l-89.2,679.89c-1.46,11.13-12.5,19.41-23.8,18.54l-266.15-20.44
					c-12.64-12.94-23.06-28.48-30.49-47.12c-3.65-9.14-6.32-19.01-8.09-29.38c-4.94-28.71-3.03-61.34,4.18-93.37
					c5.54-24.66,14.23-49,25.35-70.97c8.89-17.56,19.36-33.62,31.04-47.11c8.41-9.71,17.51-19.15,27.1-28.4
					c11.57-11.17,23.87-22.07,36.55-32.87c29.56-25.18,61.21-49.81,90.52-75.81c67.62-59.99,122.48-127.01,109.28-222.65
					c-0.42-3.01-4.54-26.08-9.81-49.99l84.87-0.23C1015.75,218.28,1024.48,227.2,1023.03,238.23z"/>
			</g>
		</g>
		<path class="st13" d="M861.71,1122.48c0.12,0.02,0.24,0.04,0.36,0.06c19.61,3.13,44.18,0.94,60.06-12.11
			c8.37-6.88,14.03-15.94,15.77-26.68c1.03-6.37,1.59-13.09,0.6-19.5c-1.04-6.71-3.64-13.19-6.98-19.07
			c-1.87-3.29-3.99-6.46-6.25-9.49c-6.47-8.68-21.74-20.87-14.66-33.17c4.28-7.44,14.15-12.01,20.67-17.23
			c13.94-11.14,23.95-27.21,24.09-45.56c0.11-14.41-8.93-28.68-19.12-38.38c-41.49-39.44-10.92-107.27-69.69-101.94
			c-58.77,5.33-71.52,63.98-49.51,118.74c7.37,18.33,16.34,37.07,21.34,56.23c3.94,15.08-1.63,25.51-13.91,34.43
			c-6.61,4.8-16.27,8.06-22.01,13.71c-12.82,12.62-23.1,30.31-20.04,48.82c3.04,18.37,18.69,31.86,35.19,38.83
			C831.89,1116.23,846.45,1120.04,861.71,1122.48z"/>
		<g class="st1">
			<path class="st2" d="M868.63,1106.73c0.14,0,0.28-0.02,0.41-0.07c0.63-0.23,0.95-0.92,0.72-1.55
				c-0.25-0.68-24.6-68.67-3.28-123.16c21.67-55.38-2.57-114.66-2.82-115.25c-0.26-0.61-0.96-0.9-1.58-0.65
				c-0.62,0.26-0.91,0.96-0.65,1.58c0.24,0.58,24.1,58.99,2.8,113.44c-21.66,55.35,3.01,124.18,3.26,124.87
				C867.68,1106.42,868.14,1106.73,868.63,1106.73z"/>
		</g>
		<linearGradient id="SVGID_8_" gradientUnits="userSpaceOnUse" x1="832.0029" y1="917.9136" x2="1108.5585" y2="917.9136">
			<stop  offset="0" style="stop-color:#311944"/>
			<stop  offset="1" style="stop-color:#893976"/>
		</linearGradient>
		<path class="st14" d="M849.32,1020.36c4.92-7.79,10.55-15.11,16.43-21.74c19.86-22.39,33.8-46.16,42.72-74.83
			c7.03-22.59,6.87-48.41,11.23-71.74c3.16-16.9,8.88-33.26,14.83-49.35c12.66-34.26,31.67-74.01,63.56-94.59
			c14.77-9.53,36.67-10.47,52.96-3.64c21.1,8.84,39.76,26.07,41.11,50.02c1.86,32.94-26.91,69.86-3.11,100.14
			c36.43,46.38,19.4,97.9-30.68,123.11c-16.32,8.22-35.45,15.84-49.09,28.46c-13.68,12.66-5.53,34.26-4.01,50.29
			c1.43,15.05,3,32.53-6.59,45.39c-16.18,21.7-55.24,31.16-80.64,33.31c-24.57,2.08-52.49-0.64-69.7-20.31
			C822.41,1085.25,830.87,1049.56,849.32,1020.36z"/>
		<g class="st1">
			<path class="st2" d="M889.31,1114.78c0.49,0,0.95-0.3,1.13-0.78c0.8-2.11,80.25-211.78,125.58-296.28
				c0.32-0.59,0.09-1.32-0.49-1.64c-0.59-0.31-1.32-0.09-1.64,0.49c-45.41,84.63-124.92,294.46-125.72,296.56
				c-0.24,0.62,0.08,1.32,0.7,1.56C889.02,1114.75,889.16,1114.78,889.31,1114.78z"/>
		</g>
		<path class="st2" d="M395.68,225.73c0,72.68-58.56,135.51-131.03,140.35c-72.71,4.86-131.84-50.47-131.84-123.59
			s59.13-135.99,131.84-140.4C337.12,97.69,395.68,153.05,395.68,225.73z"/>
		<linearGradient id="SVGID_9_" gradientUnits="userSpaceOnUse" x1="148.3766" y1="238.7637" x2="411.2389" y2="238.7637">
			<stop  offset="0.3422" style="stop-color:#9D18FE"/>
			<stop  offset="0.8897" style="stop-color:#CB3DFF"/>
		</linearGradient>
		<path class="st15" d="M411.24,230.38c0,72.68-58.56,135.51-131.03,140.35c-72.71,4.86-131.84-50.47-131.84-123.59
			s59.13-135.99,131.84-140.4C352.68,102.34,411.24,157.71,411.24,230.38z"/>
		<path class="st2" d="M275.58,310.17c-5.7,0.37-11-2.28-13.95-7.02l-49.55-79.56c-4.64-7.46-2.14-17.67,5.59-22.81
			c7.72-5.14,17.74-3.26,22.38,4.19l34.36,55.23l45.34-92.34c4.07-8.29,13.84-12.09,21.83-8.49c7.98,3.59,11.16,13.22,7.1,21.5
			l-58.59,119.42c-2.68,5.47-8.02,9.23-13.93,9.83C275.97,310.14,275.77,310.15,275.58,310.17z"/>
		<g>
			<g>
				<g>
					<g>
						<path class="st9" d="M920.67,348.5c3.63,0.06,7.18-2.7,7.61-6.16l10.63-85.39c0.43-3.48-2.17-6.29-5.82-6.29h-71.67
							c-3.55,0-6.77,2.78-7.19,6.21c-0.42,3.43,1.85,6.21,5.4,6.22l64.77,0.14l-9.8,78.92C914.2,345.6,917.05,348.44,920.67,348.5z"
							/>
					</g>
					<g>
						<path class="st9" d="M819.13,596.47l70.45,4.13c3.58,0.21,6.83-2.38,7.26-5.79l10.48-84.16c0.43-3.43-2.41-6.33-6.01-6.48
							c-3.59-0.15-7.11,2.5-7.54,5.92l-9.66,77.82l-63.75-3.63c-3.5-0.2-6.53,2.37-6.94,5.73
							C813.01,593.37,815.64,596.26,819.13,596.47z"/>
					</g>
				</g>
				<g>
					<g>
						<path class="st9" d="M595.45,343.2c3.24,0.05,5.9-2.55,6.27-5.83l8.62-74.8l59.95,0.12c3.33,0.01,6.49-2.68,6.88-6.01
							c0.39-3.33-1.86-6.02-5.19-6.02h-65.6c-3.25,0-6.2,2.66-6.57,5.94l-9.26,80.58C590.17,340.45,592.21,343.14,595.45,343.2z"/>
					</g>
					<g>
						<path class="st9" d="M568.28,581.75l64.55,3.79c3.28,0.19,6.25-2.3,6.63-5.56c0.38-3.26-2.25-6.06-5.53-6.24l-59.06-3.32
							l8.51-73.81c0.37-3.24-1.65-5.98-4.87-6.12c-3.22-0.14-5.84,2.37-6.21,5.61l-9.14,79.49
							C562.78,578.8,565.07,581.56,568.28,581.75z"/>
					</g>
				</g>
			</g>
		</g>
		<path class="st16" d="M834.33,656.02c-0.44,3.32-3.53,5.79-6.92,5.67l-234.48-8.56c-3.1-0.11-5.27-2.66-4.85-5.83l4.61-34.17
			c0.43-3.16,3.25-5.31,6.35-5.22l234.68,6.52c3.39,0.09,5.79,2.49,5.35,5.8L834.33,656.02z"/>
		<path class="st16" d="M825.24,725.44c-0.44,3.32-3.54,6.16-6.92,5.99l-234.3-11.57c-3.09-0.15-5.24-3.11-4.82-6.28l4.65-34.83
			c0.43-3.17,3.28-5.88,6.37-5.76l234.44,9.46c3.38,0.14,5.78,3.2,5.34,6.52L825.24,725.44z"/>
		<path class="st13" d="M839.09,620.09c-0.55-0.18-1.15-0.28-1.79-0.3l-234.69-6.51c-3.1-0.09-5.92,2.06-6.34,5.22l-4.62,34.17
			c-0.01,0.09-0.02,0.17-0.03,0.26c-2.38-0.67-3.91-2.93-3.55-5.63l4.62-34.17c0.42-3.16,3.25-5.31,6.34-5.22l234.69,6.51
			C837.05,614.52,839.44,616.84,839.09,620.09z"/>
		<path class="st13" d="M830.06,688.19c-0.56-0.22-1.17-0.36-1.82-0.38l-234.44-9.46c-3.1-0.12-5.95,2.6-6.37,5.76l-4.65,34.83
			c-0.03,0.22-0.04,0.44-0.04,0.66c-2.38-0.77-3.89-3.33-3.53-6.03l4.65-34.83c0.42-3.17,3.27-5.89,6.37-5.76l234.44,9.46
			C827.79,682.57,830.07,685.19,830.06,688.19z"/>
		<linearGradient id="SVGID_10_" gradientUnits="userSpaceOnUse" x1="573.9208" y1="634.7217" x2="921.0496" y2="1116.4846">
			<stop  offset="0" style="stop-color:#9D18FE"/>
			<stop  offset="1" style="stop-color:#CB3DFF"/>
		</linearGradient>
		<path class="st17" d="M762.93,781.71c0.69-5.24-3.01-10.07-8.28-10.37l-121.29-6.97c-5.02-0.29-9.66,3.94-10.35,9.05l-5.01,37.73
			c-0.68,5.11,2.8,10,7.82,10.35l121.23,8.29c5.26,0.36,10.11-4.09,10.81-9.33L762.93,781.71z"/>
		<polygon class="st2" points="255.01,499.82 400.78,553.12 363.85,604.46 262.35,530.87 		"/>
		<g>
			
				<linearGradient id="SVGID_11_" gradientUnits="userSpaceOnUse" x1="489.8191" y1="539.1214" x2="484.3215" y2="553.9649" gradientTransform="matrix(-1 0 0 1 856.6823 0)">
				<stop  offset="0" style="stop-color:#444B8C"/>
				<stop  offset="0.9964" style="stop-color:#26264F"/>
			</linearGradient>
			<path class="st18" d="M361.94,602.63l11.1-41.4c0.44-1.65,1.7-2.97,3.33-3.48l19.4-6.16c0.02-0.01,0.03-0.01,0.07-0.02l0.15-0.05
				c0.06-0.02,0.11-0.02,0.17-0.03c0.04-0.01,0.08-0.01,0.13-0.02c0.04,0,0.08-0.02,0.12-0.02c1-0.16,2.87-0.15,4.36,1.68
				c-1.11,0.8-2.11,0.76-2.93,0.41l-13.88,44.66l-20.13,6.27c-0.52,0.16-1.1,0.03-1.49-0.35
				C361.96,603.72,361.8,603.16,361.94,602.63z"/>
			
				<linearGradient id="SVGID_12_" gradientUnits="userSpaceOnUse" x1="455.6942" y1="578.5359" x2="491.4798" y2="578.5359" gradientTransform="matrix(-1 0 0 1 856.6823 0)">
				<stop  offset="0" style="stop-color:#444B8C"/>
				<stop  offset="0.9964" style="stop-color:#26264F"/>
			</linearGradient>
			<path class="st19" d="M365.26,602.62l10.93-40.09c0.45-1.63,1.68-2.93,3.29-3.45l19.88-6.46c0.44-0.14,0.92-0.03,1.25,0.3
				c0.33,0.33,0.45,0.81,0.31,1.25l-13.13,42.33c-0.33,1.06-1.16,1.9-2.22,2.23l-18.42,5.73c-0.53,0.16-1.1,0.03-1.49-0.35
				C365.27,603.71,365.11,603.15,365.26,602.62z"/>
		</g>
		
			<linearGradient id="SVGID_13_" gradientUnits="userSpaceOnUse" x1="434.9278" y1="619.3592" x2="594.33" y2="619.3592" gradientTransform="matrix(-1 0 0 1 856.6823 0)">
			<stop  offset="0" style="stop-color:#FFC444"/>
			<stop  offset="0.9964" style="stop-color:#F36F56"/>
		</linearGradient>
		<path class="st20" d="M419.6,587.37c8.23,7.25-6.82,61.54-49.55,77.73c-33.69,12.76-73.89-1.39-93.18-29.4
			c-11.12-16.15-21.19-44.99-8.84-59.02c0.56-0.64,7.54-8.32,17.49-7.77c23.04,1.27,24.52,44.58,49.23,49.88
			c5.81,1.25,7.89-0.68,56.4-21.83C414.54,586.76,417.63,585.64,419.6,587.37z"/>
		
			<linearGradient id="SVGID_14_" gradientUnits="userSpaceOnUse" x1="471.7382" y1="598.9633" x2="500.4098" y2="598.9633" gradientTransform="matrix(-1 0 0 1 856.6823 0)">
			<stop  offset="0" style="stop-color:#311944"/>
			<stop  offset="1" style="stop-color:#A03976"/>
		</linearGradient>
		<path class="st21" d="M356.7,608.98c0,0-2.06-8.04,2.89-11.75c4.95-3.71,7.01-13.4,7.83-9.9s0,7.63,0,7.63s17.73-15.46,17.52-10.1
			c-0.21,5.36-12.99,23.3-21.23,26.8C355.46,615.16,356.83,615.7,356.7,608.98z"/>
		
			<linearGradient id="SVGID_15_" gradientUnits="userSpaceOnUse" x1="420.7725" y1="579.6656" x2="442.1802" y2="579.6656" gradientTransform="matrix(-1 0 0 1 856.6823 0)">
			<stop  offset="0" style="stop-color:#311944"/>
			<stop  offset="1" style="stop-color:#A03976"/>
		</linearGradient>
		<path class="st22" d="M417.38,587.95c0,0,0.27-11.41,6.18-14.02c5.91-2.61,12.64-15.81,12.23-9.07s-6.46,9.9-6.46,9.9
			s9.76,3.51,5.5,8.97c-4.26,5.46-9.07,6.56-14.02,9.03c0,0-1.34,4.16-4.74,3.54C412.67,595.68,415.59,589.81,417.38,587.95z"/>
		
			<linearGradient id="SVGID_16_" gradientUnits="userSpaceOnUse" x1="618.303" y1="587.4856" x2="744.1295" y2="688.0496" gradientTransform="matrix(-1 0 0 1 856.6823 0)">
			<stop  offset="0" style="stop-color:#311944"/>
			<stop  offset="1" style="stop-color:#893976"/>
		</linearGradient>
		<path class="st23" d="M210.06,729.59c-32.9,15.76-64.14,11.06-85.99,7.77c-24.7-3.72-48.48-7.29-57.81-25.75
			c-9.24-18.26-0.98-44.51,13.6-58.78c17.14-16.77,34.23-8.42,46.15-24.78c12.21-16.76-2.21-30.36,8.74-49.07
			c13.78-23.55,43.39-13.56,57.81-37.41c11.83-19.56-2.67-35.55,9.23-48.1c16.5-17.4,64.63-8.1,72.34,12.4
			c3.01,8.01-1.55,13.99-4.93,25.25c-10.73,35.82,11.22,56.14,13.23,88.66C285.17,663.73,250.62,710.16,210.06,729.59z"/>
		
			<linearGradient id="SVGID_17_" gradientUnits="userSpaceOnUse" x1="568.771" y1="934.3731" x2="676.9064" y2="934.3731" gradientTransform="matrix(-1 0 0 1 856.6823 0)">
			<stop  offset="0" style="stop-color:#444B8C"/>
			<stop  offset="0.9964" style="stop-color:#3E4177"/>
		</linearGradient>
		<path class="st24" d="M287.91,791.47c-1.73,26.59-5.99,64.86-17.49,109.96c-4.14,16.22-8.29,29.74-17.65,57.85
			c-11.18,33.56-26.94,79.39-47.48,134.75c-5.96,0.91-11.91,1.82-17.87,2.73c-12.33-44.95-8.79-80.29,3.87-108.39
			c7.5-16.64,11.91-16.8,19.63-35.38c8.2-19.75,11.56-39.64,9.48-106.8c-0.59-19.02-1.69-44.3-3.9-74.21
			C240.3,778.48,264.11,784.98,287.91,791.47z"/>
		
			<linearGradient id="SVGID_18_" gradientUnits="userSpaceOnUse" x1="568.771" y1="934.3731" x2="674.3271" y2="934.3731" gradientTransform="matrix(-1 0 0 1 856.6823 0)">
			<stop  offset="0" style="stop-color:#444B8C"/>
			<stop  offset="0.9964" style="stop-color:#3E4177"/>
		</linearGradient>
		<path class="st25" d="M287.91,791.47c-1.73,26.59-5.99,64.86-17.49,109.96c-4.14,16.22-8.29,29.74-17.65,57.85
			c-11.18,33.56-26.94,79.39-47.48,134.75c-5.96,0.91-11.91,1.82-17.87,2.73c-10.53-41.95-2.82-63.98,6.76-76.43
			c5.92-7.69,13.36-12.76,18.79-25.98c6.39-15.56,1.86-22.61,5.18-40.83c4.47-24.56,15.09-24.93,18.84-44.14
			c4.42-22.65-8.12-33.56-16.58-63.19c-4.71-16.49-8.85-41.2-3.9-74.21C240.3,778.48,264.11,784.98,287.91,791.47z"/>
		
			<linearGradient id="SVGID_19_" gradientUnits="userSpaceOnUse" x1="551.7109" y1="939.7423" x2="677.8629" y2="939.7423" gradientTransform="matrix(-1 0 0 1 856.6823 0)">
			<stop  offset="0" style="stop-color:#444B8C"/>
			<stop  offset="0.9964" style="stop-color:#3E4177"/>
		</linearGradient>
		<path class="st26" d="M246.65,787.26c14.98,18.87,57.08,76.94,58.3,161.47c1.14,78.84-33.94,134.99-48.01,155.18
			c-5.86-0.53-11.72-1.07-17.58-1.6c-1.48-16.69-2.23-41.76,2.91-71.45c7.66-44.24,19.8-49.01,17.98-74.24
			c-2.29-31.64-22.29-36.72-53.44-94.19c-16.78-30.97-36.83-67.96-23.8-81.66C185.47,778.17,197.57,767.54,246.65,787.26z"/>
		
			<linearGradient id="SVGID_20_" gradientUnits="userSpaceOnUse" x1="540.1765" y1="692.4709" x2="754.5725" y2="692.4709" gradientTransform="matrix(-1 0 0 1 856.6823 0)">
			<stop  offset="0" style="stop-color:#FFC444"/>
			<stop  offset="0.9964" style="stop-color:#F36F56"/>
		</linearGradient>
		<path class="st27" d="M261.88,555.73c21.1,3.84,33.75,18.31,37.23,22.42c4.33,5.1,17.14,21.75,17.39,64.35
			c0.23,40.84-11.42,45.56-14.96,84.31c-5.21,57.14,16.77,83.96,1.44,96.85c-13.04,10.96-28.91-8.52-72.86-6.41
			c-36.28,1.74-43.26,15.86-74.45,12.33c-4.77-0.54-46.4-5.69-52.83-27.47c-4.47-15.13,11.97-25.06,34.49-61.7
			c21.56-35.07,32.17-67.72,37.44-83.93c15.89-48.92,9.3-62.3,27.26-80.18C204.28,574.06,229.41,549.82,261.88,555.73z"/>
		
			<linearGradient id="SVGID_21_" gradientUnits="userSpaceOnUse" x1="570.2427" y1="567.1141" x2="625.1402" y2="537.4792" gradientTransform="matrix(-1 0 0 1 856.6823 0)">
			<stop  offset="0" style="stop-color:#311944"/>
			<stop  offset="1" style="stop-color:#A03976"/>
		</linearGradient>
		<path class="st28" d="M240.56,516.92c0,0,4.3,29.85-12.08,45.88c-1.16,1.14-0.62,3.1,0.97,3.43c7.61,1.6,25.31,4.18,42.47-1.59
			c1.49-0.5,1.83-2.48,0.6-3.46c-3.59-2.88-9.63-8.39-12.85-15c-4.77-9.8-5.62-26.52-5.62-26.52L240.56,516.92z"/>
		<g class="st29">
			
				<linearGradient id="SVGID_22_" gradientUnits="userSpaceOnUse" x1="540.1765" y1="695.2142" x2="754.5722" y2="695.2142" gradientTransform="matrix(-1 0 0 1 856.6823 0)">
				<stop  offset="0" style="stop-color:#FFC444"/>
				<stop  offset="0.9964" style="stop-color:#F36F56"/>
			</linearGradient>
			<path class="st30" d="M137.34,740.41c21.56-35.07,32.17-67.72,37.44-83.93c15.89-48.92,9.3-62.3,27.26-80.18
				c1.15-1.15,8.35-8.1,19.48-13.79c-2.95,9.6-4.71,20.9-3.05,33.13c5.67,41.7,45.93,56.2,40.81,82.1
				c-4.68,23.68-40.52,22.69-45.67,48.1c-5.3,26.14,29.4,43.31,22.35,61.7c-6.8,17.75-41.68,8.42-76.27,29.63
				c-5.27,3.23-10.02,6.86-14.33,10.76c-14.16-2.82-37.8-9.85-42.51-25.82C98.38,786.97,114.81,777.04,137.34,740.41z"/>
		</g>
		
			<linearGradient id="SVGID_23_" gradientUnits="userSpaceOnUse" x1="647.7726" y1="489.7291" x2="606.4781" y2="515.9633" gradientTransform="matrix(-1 0 0 1 856.6823 0)">
			<stop  offset="0" style="stop-color:#311944"/>
			<stop  offset="1" style="stop-color:#A03976"/>
		</linearGradient>
		<path class="st31" d="M240.06,527.58c0,0,7.4,10.16,19,5.92c10.39-3.79,4.19-30.62-4.05-33.69c-2.75-1.02-7.8-0.57-11.17,1.54
			c-2.37,1.48-8.71,9.35-5.08,18.18c-2.62-0.76-4.94-0.07-5.51,1.23c-0.73,1.65,1.49,3.89,1.99,4.4
			C236.98,526.93,239.09,527.42,240.06,527.58z"/>
		
			<linearGradient id="SVGID_24_" gradientUnits="userSpaceOnUse" x1="487.7844" y1="637.9356" x2="671.1544" y2="637.9356" gradientTransform="matrix(-1 0 0 1 856.6823 0)">
			<stop  offset="0" style="stop-color:#FFC444"/>
			<stop  offset="0.9964" style="stop-color:#F36F56"/>
		</linearGradient>
		<path class="st32" d="M368.9,609.53c-3.91-1.47-7.82-2.95-11.73-4.42c-2.3,4.19-17.66,31.13-46.4,35.22
			c-27.1,3.86-52.55-14.53-64.37-32.55c-11.21-17.09-8.93-31.98-19.43-35.22c-10.56-3.26-23.66,8.47-29.88,16.52
			c-14.72,19.03-14.2,47.41-5.1,67.77c14.79,33.1,54.53,50.04,88.41,46.59c52.48-5.34,76.8-58.19,80.9-67.73
			C365.74,625.38,367.83,616.12,368.9,609.53z"/>
		<g>
			<g>
				<g>
					
						<linearGradient id="SVGID_25_" gradientUnits="userSpaceOnUse" x1="3377.9368" y1="468.3761" x2="3356.7827" y2="439.6875" gradientTransform="matrix(1 0 0 1 -3176.7432 0)">
						<stop  offset="0" style="stop-color:#AA80F9"/>
						<stop  offset="0.9964" style="stop-color:#6165D7"/>
					</linearGradient>
					<path class="st33" d="M181.05,482.56c-1.52,0.03-2.86-1.18-2.86-2.7v-37.42c0-1.52,1.23-2.75,2.75-2.75h29.84
						c1.48,0,2.68,1.21,2.68,2.71c0,1.5-1.09,2.72-2.57,2.72l-26.99,0.06v34.59C183.91,481.28,182.57,482.53,181.05,482.56z"/>
				</g>
				<g>
					
						<linearGradient id="SVGID_26_" gradientUnits="userSpaceOnUse" x1="3377.5591" y1="-11437.0684" x2="3356.3064" y2="-11465.8906" gradientTransform="matrix(1 0 0 -1 -3176.7432 -10872)">
						<stop  offset="0" style="stop-color:#AA80F9"/>
						<stop  offset="0.9964" style="stop-color:#6165D7"/>
					</linearGradient>
					<path class="st34" d="M210.78,592.3l-29.84,1.84c-1.52,0.09-2.75-1.06-2.75-2.58v-37.42c0-1.52,1.34-2.81,2.86-2.87
						c1.52-0.07,2.85,1.11,2.85,2.62v34.59l26.99-1.61c1.48-0.09,2.62,1.05,2.62,2.55S212.26,592.21,210.78,592.3z"/>
				</g>
			</g>
			<g>
				<g>
					
						<linearGradient id="SVGID_27_" gradientUnits="userSpaceOnUse" x1="-365.9654" y1="466.8792" x2="-385.8302" y2="439.9392" gradientTransform="matrix(-1 0 0 1 -67.7432 0)">
						<stop  offset="0" style="stop-color:#AA80F9"/>
						<stop  offset="0.9964" style="stop-color:#6165D7"/>
					</linearGradient>
					<path class="st35" d="M317.09,480.23c-1.36,0.02-2.34-1.12-2.34-2.56v-32.78l-24.98,0.05c-1.39,0-2.57-1.17-2.57-2.63
						c0-1.45,1.07-2.63,2.46-2.63h27.31c1.36,0,2.45,1.16,2.45,2.6v35.31C319.43,479.02,318.45,480.2,317.09,480.23z"/>
				</g>
				<g>
					
						<linearGradient id="SVGID_28_" gradientUnits="userSpaceOnUse" x1="-365.5891" y1="-11430.9082" x2="-385.3735" y2="-11457.7393" gradientTransform="matrix(-1 0 0 -1 -67.7432 -10872)">
						<stop  offset="0" style="stop-color:#AA80F9"/>
						<stop  offset="0.9964" style="stop-color:#6165D7"/>
					</linearGradient>
					<path class="st36" d="M316.97,585.74l-27.31,1.69c-1.39,0.09-2.51-1.02-2.51-2.48c0-1.45,1.24-2.7,2.63-2.78l24.98-1.48v-32.78
						c0-1.44,0.98-2.65,2.34-2.71c1.36-0.06,2.33,1.05,2.33,2.49v35.31C319.43,584.43,318.33,585.66,316.97,585.74z"/>
				</g>
			</g>
		</g>
		<g>
			<path class="st37" d="M731.2,563.76c-77.55,0-134.57-64.91-127.24-143.23c7.18-76.74,73.72-138.04,148.46-138.04
				c74.74,0,132.03,61.3,127.63,138.04C875.56,498.85,808.75,563.76,731.2,563.76z"/>
			<g>
				<defs>
					<path id="SVGID_29_" d="M874.63,420.53c-4.37,75.34-68.43,137.52-143,137.52s-129.25-62.18-122.26-137.52
						c6.86-73.88,70.67-132.72,142.64-132.72S878.92,346.65,874.63,420.53z"/>
				</defs>
				<use xlink:href="#SVGID_29_"  style="overflow:visible;fill:#EAEDF3;"/>
				<clipPath id="SVGID_30_">
					<use xlink:href="#SVGID_29_"  style="overflow:visible;"/>
				</clipPath>
				<g class="st38">
					<linearGradient id="SVGID_31_" gradientUnits="userSpaceOnUse" x1="727.8916" y1="299.0652" x2="715.321" y2="87.4596">
						<stop  offset="0" style="stop-color:#311944"/>
						<stop  offset="1" style="stop-color:#893976"/>
					</linearGradient>
					<path class="st39" d="M734.87,324.44c-25.26-0.73-50.39,12.42-62.65,30.78c-14.85,22.25,1.5,33.41-10.1,69.96
						c-10.78,33.97-29.67,39.81-28.63,62.32c1.14,24.8,25.06,40.61,34.53,46.88c42.79,28.29,113.37,27.11,151.48-9.36
						c3.17-3.03,29.23-27.97,24.03-50.77c-4.62-20.29-29.81-20.43-33.64-41.4c-3.28-17.97,14.23-23.76,14.28-49.62
						c0.01-5.04,0.06-28.8-18.12-39.74c-12.08-7.27-26.04-5.19-31.18-4.17C769.12,334.77,755.04,325.02,734.87,324.44z"/>
					<linearGradient id="SVGID_32_" gradientUnits="userSpaceOnUse" x1="622.2195" y1="-136.1038" x2="830.2918" y2="1060.3125">
						<stop  offset="0" style="stop-color:#FFC444"/>
						<stop  offset="0.9964" style="stop-color:#F36F56"/>
					</linearGradient>
					<path class="st40" d="M588.57,512.79c0,0,136.85-72.63,292.97-0.24c0,0-24.3,63.13-148.68,67.48
						C604.11,584.53,588.57,512.79,588.57,512.79z"/>
					<linearGradient id="SVGID_33_" gradientUnits="userSpaceOnUse" x1="737.8011" y1="523.7636" x2="727.3323" y2="363.509">
						<stop  offset="0" style="stop-color:#893976"/>
						<stop  offset="1" style="stop-color:#311944"/>
					</linearGradient>
					<path class="st41" d="M722.05,418.5l-7.55,34.31c-2.59,11.78-11.92,21.65-24.14,25.48l-40.92,12.84
						c0,0,73.58,35.24,172.47,0.02l-42.8-14.59c-12.1-4.46-19.75-15.66-19.37-28.34l0.89-29.27L722.05,418.5z"/>
					<linearGradient id="SVGID_34_" gradientUnits="userSpaceOnUse" x1="764.0423" y1="378.2571" x2="586.06" y2="504.9142">
						<stop  offset="0" style="stop-color:#893976"/>
						<stop  offset="1" style="stop-color:#311944"/>
					</linearGradient>
					<path class="st42" d="M782.93,389.17c-2.02,28.7-22.6,59.64-45.42,59.46c-22.96-0.18-39.12-31.74-36.77-60.76
						c2.34-28.8,22.05-44.05,44.67-43.56C767.9,344.8,784.93,360.69,782.93,389.17z"/>
					<linearGradient id="SVGID_35_" gradientUnits="userSpaceOnUse" x1="728.3503" y1="299.0378" x2="715.7797" y2="87.4324">
						<stop  offset="0" style="stop-color:#311944"/>
						<stop  offset="1" style="stop-color:#893976"/>
					</linearGradient>
					<path class="st43" d="M762.05,363.03c-12.29,0.36-31.05,2.8-44.92,15.31c-23.4,21.12-15.85,55.45-25.72,57.39
						c-8.8,1.73-20.12-22.83-17.65-49.46c2.06-22.16,12.27-47.95,33.64-53.99c12.53-3.54,15.64,2.74,54.79,7.25
						c22.82,2.63,13.11,12.13,18.03,15.85c21.89,16.56,15.32,69.98,2.78,70.53C777.05,426.18,769.87,412.04,762.05,363.03z"/>
				</g>
			</g>
		</g>
	</g>
</g>
</svg>
