<?xml version="1.0" encoding="utf-8"?>
<!-- Generator: Adobe Illustrator 24.3.0, SVG Export Plug-In . SVG Version: 6.00 Build 0)  -->
<svg version="1.1" id="Layer_1" xmlns="http://www.w3.org/2000/svg" xmlns:xlink="http://www.w3.org/1999/xlink" x="0px" y="0px"
	 viewBox="0 0 1200 1200" style="enable-background:new 0 0 1200 1200;" xml:space="preserve">
<style type="text/css">
	.st0{opacity:0.2;fill:url(#SVGID_1_);}
	.st1{opacity:0.3;}
	.st2{fill:#9D18FE;}
	.st3{fill:#FFFFFF;}
	.st4{fill:#CB3DFF;}
	.st5{fill:url(#SVGID_2_);}
	.st6{fill:#BDD0FB;}
	.st7{clip-path:url(#SVGID_4_);}
	.st8{fill:url(#SVGID_5_);}
	.st9{fill:url(#SVGID_6_);}
	.st10{fill:url(#SVGID_7_);}
	.st11{fill:url(#SVGID_8_);}
	.st12{fill:url(#SVGID_9_);}
	.st13{fill:url(#SVGID_10_);}
	.st14{fill:url(#SVGID_11_);}
	.st15{fill:url(#SVGID_12_);}
	.st16{fill:url(#SVGID_13_);}
	.st17{fill:url(#SVGID_14_);}
	.st18{fill:url(#SVGID_15_);}
	.st19{fill:url(#SVGID_16_);}
	.st20{opacity:0.77;fill:#FFFFFF;}
	.st21{fill:#020200;}
	.st22{fill:url(#SVGID_17_);}
	.st23{fill:url(#SVGID_18_);}
	.st24{fill:url(#SVGID_19_);}
	.st25{fill:url(#SVGID_20_);}
	.st26{fill:url(#SVGID_21_);}
	.st27{fill:url(#SVGID_22_);}
	.st28{fill:url(#SVGID_23_);}
	.st29{fill:url(#SVGID_24_);}
	.st30{opacity:0.39;fill:#FFFFFF;}
</style>
<g>
	<linearGradient id="SVGID_1_" gradientUnits="userSpaceOnUse" x1="1280.9917" y1="1201.2747" x2="412.0673" y2="440.9664">
		<stop  offset="0" style="stop-color:#9D18FE"/>
		<stop  offset="1" style="stop-color:#CB3DFF"/>
	</linearGradient>
	<path class="st0" d="M1133.32,806.41c-112.3,264.42-411.44,412.55-670.86,372.59c-42.21-6.5-157.94-25.87-260.4-117.24
		C4.82,885.87-37.36,537.56,121.75,292.11C237.55,113.46,445.14,12.19,642.39,17.25c42.49,1.09,205.32,7.82,348.42,125.81
		c21.02,17.33,67.38,58.52,109.16,123.85C1198.07,420.34,1206.51,634.09,1133.32,806.41z"/>
	<g class="st1">
		<g>
			<g>
				<g class="st1">
					<path class="st2" d="M508.1,204.9c-1.67-0.31-2.77-1.91-2.47-3.58c0.6-3.24,1.06-6.56,1.38-9.86c0.16-1.67,1.63-2.9,3.29-2.77
						c0.02,0,0.04,0,0.06,0c1.69,0.16,2.93,1.67,2.76,3.35c-0.34,3.47-0.82,6.97-1.45,10.38c-0.29,1.56-1.71,2.63-3.26,2.51
						C508.31,204.93,508.2,204.92,508.1,204.9z M507.46,175.3c-0.13-3.31-0.41-6.65-0.82-9.92c-0.21-1.68,0.98-3.22,2.66-3.43
						c1.69-0.21,3.22,0.98,3.43,2.67c0.43,3.44,0.73,6.95,0.87,10.44c0.07,1.7-1.25,3.13-2.95,3.2c-0.12,0-0.25,0-0.36-0.01
						C508.75,178.12,507.52,176.87,507.46,175.3z M503.5,149.52c-0.87-3.19-1.88-6.38-3.02-9.48c-0.58-1.59,0.24-3.36,1.83-3.94
						c1.59-0.58,3.36,0.24,3.94,1.83c1.2,3.27,2.27,6.63,3.18,9.99c0.44,1.64-0.52,3.33-2.16,3.77c-0.35,0.09-0.7,0.13-1.04,0.1
						C504.97,151.69,503.85,150.81,503.5,149.52z M493.87,125.28c-1.56-2.92-3.26-5.8-5.06-8.57c-0.92-1.42-0.52-3.33,0.9-4.25
						c1.42-0.92,3.33-0.52,4.25,0.9c1.9,2.92,3.69,5.95,5.33,9.03c0.8,1.5,0.23,3.36-1.26,4.16c-0.54,0.29-1.12,0.4-1.68,0.35
						C495.34,126.82,494.39,126.24,493.87,125.28z M479.09,103.79c-2.16-2.49-4.46-4.93-6.84-7.24c-1.22-1.18-1.24-3.13-0.06-4.35
						c1.18-1.22,3.13-1.24,4.35-0.06c2.5,2.43,4.92,4.99,7.19,7.62c1.11,1.28,0.97,3.22-0.31,4.33c-0.65,0.56-1.46,0.8-2.25,0.74
						C480.4,104.78,479.64,104.42,479.09,103.79z M459.92,86.1c-2.66-1.96-5.44-3.82-8.27-5.55c-1.45-0.88-1.9-2.78-1.02-4.22
						c0.89-1.45,2.78-1.91,4.22-1.02c2.97,1.81,5.9,3.78,8.7,5.84c1.37,1.01,1.66,2.93,0.66,4.3c-0.65,0.89-1.69,1.32-2.72,1.24
						C460.94,86.65,460.4,86.45,459.92,86.1z M347.14,68.7c-0.58-1.59,0.24-3.36,1.84-3.94c3.27-1.19,6.63-2.25,10-3.16
						c1.64-0.44,3.33,0.53,3.77,2.17c0.44,1.64-0.53,3.32-2.17,3.77c-3.2,0.86-6.39,1.87-9.49,3c-0.43,0.15-0.86,0.21-1.29,0.18
						C348.63,70.62,347.56,69.87,347.14,68.7z M437.32,73.11c-3.03-1.31-6.15-2.51-9.29-3.56c-1.61-0.54-2.48-2.28-1.94-3.89
						c0.54-1.61,2.28-2.47,3.89-1.94c3.3,1.11,6.59,2.37,9.78,3.75c1.56,0.68,2.27,2.48,1.6,4.04c-0.54,1.23-1.79,1.94-3.06,1.84
						C437.97,73.33,437.64,73.25,437.32,73.11z M373.01,61.76c-0.21-1.68,0.99-3.22,2.67-3.43c3.45-0.43,6.96-0.71,10.44-0.85
						c1.7-0.07,3.12,1.26,3.19,2.95c0.07,1.7-1.26,3.12-2.95,3.19c-3.31,0.13-6.65,0.4-9.93,0.81c-0.21,0.03-0.42,0.03-0.62,0.01
						C374.39,64.33,373.19,63.23,373.01,61.76z M412.38,65.5c-3.25-0.6-6.56-1.07-9.85-1.4c-1.69-0.17-2.92-1.67-2.76-3.36
						c0.16-1.67,1.63-2.89,3.29-2.76c0.02,0,0.04,0,0.07,0.01c3.47,0.34,6.96,0.84,10.37,1.47c1.67,0.31,2.77,1.91,2.46,3.58
						c-0.29,1.56-1.71,2.62-3.25,2.5C412.6,65.53,412.49,65.52,412.38,65.5z"/>
					<path class="st2" d="M330.27,79.9c0.6,0.05,1.23-0.08,1.79-0.41c1.37-0.8,2.77-1.59,4.18-2.34c1.5-0.8,2.06-2.66,1.27-4.16
						c-0.8-1.5-2.66-2.07-4.16-1.27c-1.48,0.79-2.96,1.62-4.4,2.46c-1.46,0.86-1.95,2.74-1.1,4.2
						C328.38,79.29,329.3,79.82,330.27,79.9z"/>
				</g>
				<g class="st1">
					<path class="st2" d="M274.38,155.09c1.48,0.11,2.86-0.86,3.22-2.35c0.37-1.54,0.78-3.1,1.22-4.63c0.46-1.63-0.48-3.33-2.11-3.8
						c-1.64-0.47-3.33,0.48-3.8,2.11c-0.46,1.61-0.89,3.26-1.28,4.88c-0.4,1.65,0.62,3.31,2.27,3.71
						C274.06,155.06,274.22,155.08,274.38,155.09z"/>
					<path class="st2" d="M375.36,301.88c-1.68-0.21-2.88-1.75-2.66-3.44c0.21-1.68,1.75-2.87,3.44-2.66
						c3.21,0.41,6.48,0.68,9.76,0.83c1.69,0.07,3.01,1.51,2.94,3.2c-0.07,1.7-1.51,3.01-3.2,2.94c-1.42-0.06-2.84-0.15-4.25-0.26
						C379.36,302.34,377.34,302.13,375.36,301.88z M399.03,299.56c-0.16-1.69,1.09-3.19,2.78-3.34c3.24-0.3,6.51-0.74,9.71-1.31
						c1.67-0.3,3.27,0.82,3.56,2.49c0.3,1.67-0.82,3.27-2.49,3.56c-3.37,0.6-6.81,1.06-10.22,1.38c-0.18,0.02-0.35,0.02-0.52,0
						C400.38,302.23,399.17,301.08,399.03,299.56z M358.93,298.64c-3.3-0.89-6.61-1.93-9.83-3.1c-1.6-0.58-2.42-2.34-1.84-3.94
						c0.58-1.6,2.34-2.42,3.94-1.84c3.06,1.11,6.2,2.1,9.34,2.95c1.64,0.44,2.61,2.13,2.17,3.77c-0.39,1.45-1.76,2.38-3.2,2.26
						C359.3,298.72,359.12,298.69,358.93,298.64z M424.97,294.93c-0.52-1.61,0.36-3.35,1.98-3.87c3.09-1,6.18-2.15,9.18-3.41
						c1.57-0.66,3.37,0.08,4.02,1.64c0.66,1.56-0.08,3.37-1.64,4.02c-3.16,1.33-6.41,2.54-9.67,3.59c-0.39,0.13-0.79,0.17-1.18,0.14
						C426.45,296.95,425.37,296.15,424.97,294.93z M333.79,288.76c-3.02-1.59-6.02-3.34-8.91-5.19c-1.43-0.91-1.85-2.81-0.93-4.24
						c0.91-1.43,2.82-1.85,4.24-0.93c2.74,1.76,5.59,3.41,8.46,4.93c1.5,0.79,2.08,2.65,1.29,4.15c-0.59,1.12-1.77,1.72-2.96,1.63
						C334.58,289.08,334.17,288.97,333.79,288.76z M311.43,273.62c-2.61-2.22-5.15-4.58-7.56-7c-1.2-1.2-1.19-3.15,0.02-4.35
						c1.21-1.2,3.15-1.19,4.35,0.02c2.29,2.31,4.71,4.55,7.19,6.66c1.29,1.1,1.45,3.04,0.35,4.33c-0.66,0.78-1.63,1.14-2.58,1.07
						C312.56,274.29,311.95,274.05,311.43,273.62z M292.9,253.96c-2.06-2.74-4.03-5.59-5.86-8.48c-0.91-1.44-0.47-3.33,0.96-4.24
						c1.44-0.91,3.33-0.47,4.24,0.96c1.73,2.75,3.6,5.46,5.57,8.06c1.02,1.36,0.75,3.28-0.6,4.3c-0.62,0.47-1.36,0.67-2.09,0.61
						C294.27,255.1,293.46,254.69,292.9,253.96z M279.11,230.72c-1.41-3.12-2.71-6.34-3.86-9.57c-0.57-1.6,0.27-3.36,1.87-3.92
						c1.6-0.57,3.36,0.27,3.92,1.87c1.09,3.06,2.32,6.12,3.66,9.08c0.7,1.55,0.02,3.37-1.53,4.07c-0.49,0.22-1,0.3-1.5,0.27
						C280.59,232.43,279.59,231.78,279.11,230.72z M270.75,205.01c-0.69-3.35-1.25-6.77-1.65-10.17c-0.2-1.69,1-3.22,2.69-3.42
						c1.68-0.2,3.21,1,3.42,2.69c0.39,3.23,0.91,6.48,1.57,9.66c0.34,1.66-0.73,3.29-2.39,3.63c-0.29,0.06-0.58,0.08-0.86,0.06
						C272.19,207.35,271.03,206.38,270.75,205.01z M268.24,178.12c0.04-2.52,0.16-5.07,0.35-7.58c0.07-0.91,0.15-1.81,0.24-2.71
						c0.17-1.69,1.65-2.96,3.36-2.75c1.69,0.17,2.92,1.67,2.75,3.36c-0.08,0.86-0.16,1.72-0.23,2.58c-0.18,2.38-0.3,4.81-0.34,7.2
						c-0.03,1.7-1.43,3.05-3.12,3.02c-0.06,0-0.13,0-0.19-0.01C269.46,181.11,268.21,179.75,268.24,178.12z"/>
					<path class="st2" d="M451.73,286.16c0.61,0.05,1.24-0.09,1.8-0.42c1.43-0.85,2.87-1.74,4.28-2.66c1.42-0.93,1.83-2.83,0.9-4.25
						c-0.93-1.42-2.83-1.83-4.25-0.9c-1.34,0.87-2.71,1.72-4.06,2.53c-1.46,0.86-1.94,2.75-1.08,4.21
						C449.85,285.55,450.77,286.08,451.73,286.16z"/>
				</g>
				<g>
					<path class="st2" d="M464.82,235.12c0.42-0.44,0.52-1.11,0.24-1.65l-8.03-15.53c4.14-7.04,7.18-14.78,8.9-23.01l16.38-6.09
						c0.57-0.21,0.95-0.77,0.94-1.38l-0.5-20.96c-0.01-0.61-0.42-1.15-1-1.33l-16.65-5.3c-2.11-8.13-5.52-15.73-9.99-22.56
						l7.28-15.89c0.25-0.56,0.13-1.21-0.31-1.64l-15.17-14.47c-0.44-0.42-1.11-0.52-1.65-0.24l-15.53,8.03
						c-7.04-4.14-14.78-7.18-23.01-8.9l-6.09-16.38c-0.21-0.57-0.77-0.95-1.38-0.94l-20.96,0.5c-0.61,0.01-1.15,0.42-1.33,1
						l-5.3,16.65c-8.13,2.11-15.73,5.52-22.56,9.99l-15.89-7.28c-0.56-0.26-1.21-0.13-1.64,0.31l-14.47,15.17
						c-0.42,0.44-0.52,1.11-0.24,1.65l8.03,15.53c-4.14,7.04-7.18,14.78-8.9,23.01l-16.38,6.09c-0.57,0.21-0.95,0.77-0.94,1.38
						l0.5,20.96c0.01,0.61,0.42,1.15,1,1.33l16.65,5.3c2.11,8.13,5.52,15.73,9.99,22.56l-7.28,15.89c-0.26,0.56-0.13,1.21,0.31,1.64
						l15.17,14.47c0.44,0.42,1.11,0.52,1.65,0.24l15.53-8.03c7.04,4.14,14.78,7.18,23.01,8.9l6.09,16.38
						c0.21,0.57,0.77,0.95,1.38,0.94l20.96-0.5c0.61-0.01,1.15-0.42,1.33-1l5.3-16.65c8.13-2.11,15.73-5.52,22.56-9.99l15.89,7.28
						c0.56,0.26,1.21,0.13,1.64-0.31L464.82,235.12z"/>
					<path class="st3" d="M386.28,199.73c-11.33-2.58-18.46-13.89-15.88-25.22c1.25-5.49,4.56-10.17,9.32-13.16
						c4.76-3,10.41-3.97,15.9-2.72c11.33,2.58,18.46,13.89,15.88,25.22c-2.34,10.31-11.92,17.14-22.16,16.34
						C388.33,200.12,387.3,199.96,386.28,199.73z M382.34,165.5c-3.65,2.3-6.19,5.88-7.15,10.09c-1.97,8.69,3.49,17.36,12.18,19.34
						c8.69,1.98,17.36-3.49,19.34-12.18c1.97-8.69-3.49-17.36-12.18-19.34c-0.79-0.18-1.58-0.3-2.37-0.36
						C388.73,162.8,385.31,163.63,382.34,165.5z"/>
					<path class="st3" d="M386.57,230.51c1.76,0.14,3.54,0.18,5.32,0.14l0,0c0.56-0.01,1.13-0.04,1.69-0.07
						c2.77-0.16,5.53-0.53,8.22-1.12c0.04-0.01,0.07-0.02,0.11-0.02c0.1-0.02,0.21-0.05,0.31-0.07c0.2-0.05,0.41-0.09,0.61-0.14
						c0.53-0.13,0.9-0.58,0.94-1.1c0.01-0.13,0-0.26-0.03-0.38c-0.16-0.66-0.82-1.06-1.48-0.91c-3.4,0.82-6.9,1.27-10.42,1.36
						c-17.49,0.42-33.1-8.36-42.19-21.91c-5.06-7.53-8.1-16.55-8.33-26.27c-0.04-1.71,0-3.4,0.14-5.08
						c0.87-11.29,5.57-21.85,13.49-30.16c9.1-9.54,21.37-14.97,34.55-15.28c27.22-0.64,49.88,20.97,50.52,48.18
						c0.04,1.68-0.01,3.35-0.13,5.01c-0.56,7.2-2.69,14.2-6.26,20.49c-0.09,0.16-0.14,0.34-0.16,0.51
						c-0.04,0.46,0.19,0.92,0.62,1.16c0.59,0.33,1.34,0.13,1.68-0.46c3.75-6.6,5.98-13.95,6.57-21.52c0.14-1.74,0.18-3.5,0.14-5.26
						c-0.68-28.57-24.48-51.26-53.04-50.58c-13.84,0.33-26.72,6.03-36.27,16.05c-8.32,8.72-13.24,19.81-14.16,31.66
						c-0.14,1.76-0.18,3.54-0.14,5.33c0.33,13.84,6.03,26.72,16.05,36.27C363.62,224.67,374.71,229.59,386.57,230.51z"/>
				</g>
			</g>
			<g>
				<g class="st1">
					<path class="st2" d="M606.73,293.77c0.82,0.06,1.61-0.41,1.92-1.22c0.57-1.51,1.11-3.05,1.59-4.59c0.31-1-0.24-2.06-1.25-2.38
						c-1-0.32-2.06,0.25-2.38,1.25c-0.46,1.47-0.97,2.94-1.51,4.38c-0.37,0.98,0.12,2.07,1.1,2.45
						C606.37,293.72,606.55,293.76,606.73,293.77z"/>
					<path class="st2" d="M610.44,279.68c-1.03-0.19-1.72-1.17-1.53-2.21c0.47-2.6,0.81-5.26,1.02-7.9
						c0.04-0.56,0.08-1.11,0.11-1.68c0.06-1.05,0.96-1.85,2-1.79c0.99,0.1,1.85,0.96,1.79,2c-0.03,0.59-0.07,1.17-0.12,1.75
						c-0.21,2.76-0.57,5.55-1.07,8.28c-0.17,0.97-1.05,1.63-2.01,1.55C610.57,279.7,610.51,279.69,610.44,279.68z M609.99,258.26
						c-0.21-3.2-0.62-6.42-1.22-9.56c-0.2-1.03,0.48-2.02,1.51-2.22c1.02-0.19,2.02,0.48,2.22,1.51c0.63,3.29,1.06,6.66,1.28,10.02
						c0.07,1.05-0.72,1.95-1.77,2.02c-0.09,0.01-0.18,0-0.27,0C610.81,259.95,610.06,259.21,609.99,258.26z M606.38,239.36
						c-0.99-3.05-2.18-6.06-3.53-8.97c-0.44-0.95-0.03-2.08,0.92-2.52c0.95-0.44,2.08-0.04,2.52,0.91c1.42,3.05,2.67,6.21,3.71,9.41
						c0.32,1-0.22,2.07-1.22,2.39c-0.24,0.08-0.49,0.11-0.73,0.09C607.29,240.61,606.62,240.12,606.38,239.36z M598.23,221.93
						c-1.71-2.72-3.6-5.35-5.62-7.83c-0.66-0.81-0.54-2.01,0.27-2.67c0.81-0.66,2.01-0.54,2.67,0.27c2.12,2.6,4.1,5.36,5.89,8.21
						c0.56,0.89,0.29,2.06-0.6,2.62c-0.36,0.22-0.76,0.31-1.15,0.28C599.11,222.77,598.56,222.46,598.23,221.93z M586.07,207.02
						c-2.31-2.22-4.79-4.31-7.35-6.23c-0.84-0.63-1.01-1.82-0.38-2.66c0.63-0.84,1.82-1.01,2.66-0.38c2.69,2.01,5.28,4.2,7.71,6.53
						c0.76,0.73,0.78,1.93,0.06,2.68c-0.41,0.43-0.97,0.62-1.52,0.58C586.81,207.51,586.4,207.34,586.07,207.02z M570.66,195.51
						c-2.78-1.59-5.69-3.01-8.64-4.24c-0.97-0.4-1.43-1.51-1.02-2.48c0.4-0.97,1.51-1.42,2.48-1.02c3.1,1.29,6.15,2.79,9.06,4.45
						c0.91,0.52,1.23,1.68,0.71,2.59c-0.38,0.66-1.09,1.01-1.8,0.95C571.18,195.73,570.91,195.65,570.66,195.51z M552.91,188.12
						c-3.08-0.85-6.25-1.52-9.43-1.99c-1.04-0.15-1.75-1.12-1.6-2.16c0.15-1.04,1.11-1.74,2.16-1.6c3.33,0.49,6.66,1.2,9.88,2.09
						c1.01,0.28,1.6,1.33,1.32,2.34c-0.25,0.89-1.09,1.45-1.97,1.38C553.15,188.18,553.03,188.16,552.91,188.12z M522.17,183.97
						c-0.1-1.04,0.66-1.97,1.7-2.08c2.89-0.29,5.84-0.42,8.77-0.39c0.45,0,0.89,0.01,1.33,0.02c1.04,0,1.88,0.9,1.85,1.95
						c-0.03,1.05-0.9,1.88-1.95,1.85c-0.42-0.01-0.83-0.02-1.26-0.02c-2.8-0.02-5.62,0.1-8.37,0.37c-0.11,0.01-0.23,0.01-0.33,0
						C523.01,185.6,522.27,184.9,522.17,183.97z"/>
				</g>
				<g class="st1">
					<path class="st2" d="M524.53,345.1c-3.29-0.3-6.6-0.8-9.82-1.49c-1.02-0.22-1.68-1.23-1.46-2.25c0.22-1.03,1.23-1.67,2.25-1.46
						c3.07,0.66,6.23,1.14,9.37,1.42c1.04,0.09,1.81,1.02,1.72,2.06c-0.09,1.04-1,1.8-2.04,1.72
						C524.54,345.11,524.53,345.1,524.53,345.1z M532.51,343.56c-0.03-1.05,0.79-1.92,1.84-1.95c3.15-0.09,6.33-0.38,9.45-0.85
						c1.03-0.15,2,0.56,2.16,1.59c0.16,1.04-0.56,2-1.59,2.16c-3.27,0.49-6.6,0.79-9.9,0.89c-0.07,0-0.14,0-0.21,0
						C533.3,345.32,532.54,344.54,532.51,343.56z M505.13,340.94c-3.13-1.09-6.21-2.37-9.17-3.82c-0.94-0.46-1.33-1.6-0.87-2.54
						c0.46-0.94,1.59-1.33,2.54-0.87c2.82,1.38,5.77,2.61,8.75,3.65c0.99,0.34,1.51,1.43,1.17,2.41c-0.29,0.83-1.1,1.34-1.94,1.27
						C505.45,341.03,505.29,340.99,505.13,340.94z M551.75,341.11c-0.28-1.01,0.31-2.06,1.32-2.34c3.04-0.85,6.05-1.89,8.96-3.11
						c0.97-0.4,2.08,0.06,2.48,1.02c0.4,0.97-0.05,2.08-1.02,2.48c-3.05,1.27-6.21,2.37-9.4,3.26c-0.22,0.06-0.44,0.08-0.66,0.06
						C552.66,342.43,551.97,341.9,551.75,341.11z M487.32,332.21c-2.77-1.8-5.45-3.79-7.98-5.92c-0.8-0.67-0.91-1.87-0.23-2.67
						c0.67-0.8,1.87-0.91,2.67-0.23c2.41,2.03,4.98,3.92,7.62,5.64c0.88,0.57,1.13,1.75,0.55,2.63c-0.39,0.6-1.07,0.91-1.74,0.86
						C487.9,332.49,487.59,332.39,487.32,332.21z M472.12,319.46c-2.26-2.42-4.39-4.99-6.34-7.66c-0.62-0.85-0.43-2.03,0.41-2.65
						c0.84-0.62,2.03-0.44,2.65,0.41c1.86,2.54,3.89,5,6.05,7.3c0.72,0.77,0.68,1.97-0.09,2.68c-0.4,0.38-0.93,0.55-1.44,0.51
						C472.9,320.02,472.45,319.82,472.12,319.46z M460.41,303.44c-1.62-2.89-3.07-5.9-4.32-8.96c-0.4-0.97,0.07-2.08,1.04-2.48
						c0.97-0.4,2.08,0.07,2.48,1.04c1.19,2.91,2.58,5.79,4.12,8.54c0.51,0.92,0.19,2.07-0.73,2.58c-0.34,0.19-0.71,0.26-1.07,0.24
						C461.31,304.36,460.73,304.02,460.41,303.44z"/>
					<path class="st2" d="M571.41,334.99c0.37,0.03,0.74-0.05,1.08-0.24c1.41-0.8,2.81-1.65,4.14-2.52
						c0.88-0.57,1.13-1.75,0.56-2.63c-0.57-0.88-1.75-1.13-2.63-0.56c-1.28,0.83-2.61,1.64-3.95,2.41
						c-0.91,0.52-1.23,1.68-0.71,2.59C570.23,334.61,570.8,334.94,571.41,334.99z"/>
				</g>
				<g>
					<path class="st2" d="M581.41,300.27c0.28-0.3,0.35-0.74,0.16-1.1l-5.37-10.39c2.77-4.71,4.81-9.89,5.96-15.4l10.96-4.07
						c0.38-0.14,0.64-0.51,0.63-0.92l-0.33-14.03c-0.01-0.41-0.28-0.77-0.67-0.89l-11.14-3.55c-1.41-5.44-3.69-10.52-6.68-15.1
						l4.87-10.63c0.17-0.37,0.09-0.81-0.21-1.1l-10.15-9.68c-0.3-0.28-0.74-0.35-1.1-0.16l-10.39,5.37
						c-4.71-2.77-9.89-4.81-15.4-5.96l-4.07-10.96c-0.14-0.38-0.51-0.64-0.92-0.63l-14.03,0.33c-0.41,0.01-0.77,0.28-0.89,0.67
						l-3.55,11.14c-5.44,1.41-10.52,3.69-15.1,6.68l-10.63-4.87c-0.37-0.17-0.81-0.09-1.1,0.21l-9.68,10.15
						c-0.28,0.3-0.35,0.74-0.16,1.1l5.37,10.39c-2.77,4.71-4.81,9.89-5.96,15.4l-10.96,4.07c-0.38,0.14-0.64,0.51-0.63,0.92
						l0.33,14.03c0.01,0.41,0.28,0.77,0.67,0.89l11.14,3.55c1.41,5.44,3.69,10.52,6.68,15.1l-4.87,10.63
						c-0.17,0.37-0.09,0.81,0.21,1.1l10.15,9.68c0.3,0.28,0.74,0.35,1.1,0.16l10.39-5.37c4.71,2.77,9.89,4.81,15.4,5.96l4.07,10.96
						c0.14,0.38,0.51,0.64,0.92,0.63l14.03-0.33c0.41-0.01,0.77-0.28,0.89-0.67l3.55-11.14c5.44-1.41,10.52-3.69,15.1-6.68
						l10.63,4.87c0.37,0.17,0.81,0.09,1.1-0.21L581.41,300.27z"/>
					<path class="st3" d="M528.8,276.83c-3.74-0.85-6.93-3.1-8.97-6.35c-2.04-3.24-2.7-7.09-1.85-10.83
						c1.75-7.72,9.45-12.56,17.18-10.82c7.72,1.76,12.57,9.46,10.82,17.18c-0.85,3.74-3.1,6.92-6.35,8.97
						c-2.64,1.66-5.67,2.41-8.73,2.17C530.2,277.1,529.5,276.99,528.8,276.83z M521.68,260.49c-0.63,2.75-0.14,5.58,1.36,7.97
						c1.5,2.39,3.85,4.05,6.6,4.67l0,0c2.75,0.62,5.58,0.14,7.97-1.36c2.39-1.5,4.05-3.85,4.67-6.6c1.29-5.68-2.28-11.35-7.96-12.64
						c-0.51-0.12-1.02-0.19-1.53-0.23C527.66,251.91,522.86,255.33,521.68,260.49z"/>
					<path class="st3" d="M529,298.26c1.2,0.09,2.41,0.12,3.63,0.1c2.43-0.06,4.86-0.36,7.23-0.91c0.11-0.03,0.21-0.05,0.32-0.08
						c0.82-0.2,1.39-0.9,1.45-1.7c0.01-0.19,0-0.39-0.05-0.59c-0.24-1.02-1.27-1.64-2.29-1.4c-2.2,0.53-4.47,0.83-6.75,0.88l0,0
						c-0.12,0-0.25,0-0.37,0.01c-5.38,0.08-10.58-1.19-15.22-3.63c-2.52-1.33-4.88-3-7.01-4.99c-0.02-0.02-0.03-0.03-0.05-0.05
						c-0.05-0.05-0.11-0.1-0.16-0.15c-6.18-5.89-9.69-13.84-9.89-22.37c-0.03-1.1,0-2.2,0.09-3.29c0.57-7.31,3.6-14.15,8.73-19.53
						c5.89-6.18,13.84-9.69,22.37-9.89c8.53-0.2,16.64,2.93,22.81,8.82c6.18,5.89,9.69,13.84,9.89,22.37c0.03,1.09,0,2.17-0.09,3.24
						c-0.36,4.66-1.74,9.2-4.05,13.27c-0.14,0.25-0.22,0.52-0.24,0.79c-0.05,0.71,0.29,1.42,0.96,1.8c0.91,0.51,2.07,0.2,2.59-0.71
						c2.59-4.56,4.13-9.63,4.53-14.84c0.09-1.2,0.13-2.42,0.1-3.63c-0.23-9.55-4.16-18.44-11.07-25.03
						c-6.91-6.59-15.97-10.1-25.52-9.87c-9.55,0.23-18.43,4.16-25.03,11.07c-5.74,6.02-9.14,13.67-9.77,21.84
						c-0.09,1.21-0.13,2.44-0.1,3.68C496.48,281.94,510.95,296.86,529,298.26z"/>
				</g>
			</g>
		</g>
	</g>
	<g class="st1">
		<g>
			<path class="st2" d="M115.4,20.62c-2.53-6.34,4.67-12.17,10.4-8.46c58.22,37.66,203.12,155.79,217.76,405.6
				c18.37,313.42,102.58,413.7,194.49,467.49c0,0-115.02-12.25-204.35-113.3C114.37,523.86,160.43,133.37,115.4,20.62z"/>
			<path class="st3" d="M170.65,109.52c12.43,33,24.19,66.24,34.73,99.85c10.71,33.55,20.4,67.42,29.02,101.53
				c8.49,34.15,16.33,68.45,22.71,103.03c6.53,34.55,11.57,69.35,16.51,104.3c5.13,34.9,10.1,70.1,18.69,104.89
				c8.54,34.72,21.36,68.99,40.06,99.89c4.67,7.7,9.5,15.35,14.73,22.63c5.1,7.38,10.53,14.55,16.08,21.61
				c11.18,14.07,23.31,27.42,36.38,39.81c26.2,24.72,56.15,45.43,87.96,61.78c3.35,1.72,7.46,0.4,9.18-2.95
				c1.69-3.29,0.45-7.31-2.77-9.08l-0.02-0.01c-7.63-4.2-15.19-8.47-22.54-13.07c-3.71-2.24-7.32-4.64-10.97-6.98
				c-3.56-2.47-7.21-4.8-10.69-7.38c-14.08-10.07-27.43-21.11-39.9-33.08c-25.03-23.8-46.63-51.46-64.55-80.96
				c-8.8-14.85-16.48-30.33-22.95-46.34c-6.46-16.02-11.69-32.56-15.99-49.41c-8.6-33.72-13.81-68.51-19.19-103.38
				c-5.43-34.87-11.12-69.87-18.25-104.58c-3.52-17.36-7.34-34.66-11.48-51.88c-2.02-8.62-4.2-17.2-6.37-25.79
				c-2.25-8.56-4.55-17.11-6.92-25.64c-9.53-34.1-20.1-67.89-31.72-101.3c-11.78-33.35-24.44-66.39-38.36-98.87
				c-0.4-0.93-1.47-1.36-2.4-0.96C170.74,107.58,170.31,108.61,170.65,109.52z"/>
		</g>
	</g>
	<g class="st1">
		<g>
			<g>
				<path class="st4" d="M241.3,996.15c-4.03,11.92-18.92,15.85-28.41,7.6c-52.4-45.53-188.92-187.67-181.03-427.19
					c6.66-202.26-8.94-312.57-19.5-362.16c-2.23-10.49,10.22-17.73,18.24-10.62C119.11,282.24,387.17,564.23,241.3,996.15z"/>
				<path class="st3" d="M224.27,996.63c-0.26,0.18-0.53,0.33-0.83,0.46c-2.48,1.09-5.38-0.03-6.47-2.52
					C215.72,991.76,93,709.89,89.56,428.24c-0.03-2.71,2.14-4.94,4.85-4.97c2.71-0.03,4.94,2.14,4.97,4.85
					c3.41,279.6,125.34,559.7,126.57,562.5C226.92,992.8,226.16,995.31,224.27,996.63z"/>
			</g>
		</g>
	</g>
	<linearGradient id="SVGID_2_" gradientUnits="userSpaceOnUse" x1="679.9945" y1="245.6062" x2="526.3741" y2="1679.3978">
		<stop  offset="0" style="stop-color:#9D18FE"/>
		<stop  offset="1" style="stop-color:#CB3DFF"/>
	</linearGradient>
	<path class="st5" d="M1187.9,431.08l-12.42,525.68l-1.93,81.3c0,10.63-8.71,19.23-19.34,19.23H108.99
		c-10.63,0-19.34-8.6-19.34-19.23l-1.18-81.35l-7.52-519.23c0-10.63,12.52-31.35,35.45-29.79l1021.51-26.43
		c13.34-0.33,26.24,4.79,35.68,14.22C1183.04,404.89,1188.21,417.76,1187.9,431.08z"/>
	<g>
		<g>
			<path class="st3" d="M1053.87,496.23c-0.25,9.23-5.16,16.83-10.97,16.87l-345.36,2.06c-6.54,0.04-11.82-8.05-11.77-17.88l0,0
				c0.04-9.84,5.4-17.98,11.96-17.98h346.07C1049.62,479.29,1054.12,486.99,1053.87,496.23L1053.87,496.23z"/>
			<path class="st3" d="M1050.14,895.09c-0.25,9.23-5.09,16.52-10.81,16.55l-340.54,1.9c-6.45,0.04-11.65-7.5-11.61-17.32l0,0
				c0.04-9.84,5.33-17.43,11.79-17.43h341.24C1045.95,878.79,1050.39,885.85,1050.14,895.09L1050.14,895.09z"/>
			<path class="st3" d="M1050.18,831.22c-0.25,9.23-5.11,16.45-10.86,16.49l-341.9,1.87c-6.47,0.04-11.7-7.39-11.65-17.21l0,0
				c0.04-9.84,5.35-17.32,11.84-17.32h342.6C1045.97,815.04,1050.43,821.97,1050.18,831.22L1050.18,831.22z"/>
			<path class="st3" d="M1053.83,567.06c-0.25,7.72-8.78,14.03-19.07,14.12l-329.43,2.75c-10.87,0.09-19.64-6.27-19.56-14.22
				l0.01-0.89c0.08-7.96,8.98-14.47,19.87-14.53l330.02-1.97c10.31-0.06,18.44,6.16,18.19,13.88L1053.83,567.06z"/>
			<path class="st3" d="M1052.59,636.39c-0.3,7.65-8.84,13.91-19.11,13.98l-328.54,2.48c-10.84,0.08-19.54-6.23-19.42-14.11
				l0.01-0.89c0.13-7.89,9.04-14.33,19.9-14.39l329.12-1.71c10.28-0.05,18.36,6.12,18.06,13.77L1052.59,636.39z"/>
		</g>
	</g>
	<path class="st3" d="M1128.98,1043.12h-112c-0.78,0-1.42-0.63-1.42-1.42c0-0.78,0.63-1.42,1.42-1.42h112
		c13.78,0,25.42-12.81,25.42-27.96V667.71c0-0.78,0.63-1.42,1.42-1.42c0.78,0,1.42,0.63,1.42,1.42v344.62
		C1157.23,1029.02,1144.29,1043.12,1128.98,1043.12z"/>
	<path class="st6" d="M108.91,667.71c-0.78,0-1.42-0.63-1.42-1.42V467.07c0-20.49,15.3-35.94,35.58-35.94h89.08
		c0.78,0,1.42,0.63,1.42,1.42c0,0.78-0.63,1.42-1.42,1.42h-89.08c-18.98,0-32.75,13.92-32.75,33.1v199.23
		C110.33,667.07,109.69,667.71,108.91,667.71z"/>
	<path class="st3" d="M533.21,916.26H165.75c-6.6,0-12-5.4-12-12V505.76c0-6.6,5.4-12,12-12h367.46c6.6,0,12,5.4,12,12v398.49
		C545.21,910.86,539.81,916.26,533.21,916.26z"/>
	<g>
		<defs>
			<path id="SVGID_3_" d="M533.06,916.26H165.6c-6.6,0-12-5.4-12-12V505.76c0-6.6,5.4-12,12-12h367.46c6.6,0,12,5.4,12,12v398.49
				C545.06,910.86,539.66,916.26,533.06,916.26z"/>
		</defs>
		<clipPath id="SVGID_4_">
			<use xlink:href="#SVGID_3_"  style="overflow:visible;"/>
		</clipPath>
		<g class="st7">
			<linearGradient id="SVGID_5_" gradientUnits="userSpaceOnUse" x1="479.8122" y1="707.5371" x2="538.3177" y2="902.712">
				<stop  offset="0" style="stop-color:#09005D"/>
				<stop  offset="1" style="stop-color:#1A0F91"/>
			</linearGradient>
			<path class="st8" d="M579.56,899.73c-11.71-68.22-42.98-130.51-42.98-130.51l-40.94,141.95c0,0,0.71,1.6,1.88,5.16l68.17-0.14
				C574.4,916.17,581.03,908.32,579.56,899.73z"/>
			<linearGradient id="SVGID_6_" gradientUnits="userSpaceOnUse" x1="146.4276" y1="769.3824" x2="205.8041" y2="967.4631">
				<stop  offset="0" style="stop-color:#09005D"/>
				<stop  offset="1" style="stop-color:#1A0F91"/>
			</linearGradient>
			<path class="st9" d="M225.2,916.33c4.49-16.03,7.93-26.35,7.93-26.35l-66.91-120.76c0,0-15.2,18.11-31.48,122.28
				c-2.03,12.99,7.65,24.83,20.8,24.83H225.2z"/>
			<path class="st4" d="M455.64,916.33L437.5,726.14c-81.04-29.95-183.22,3.57-183.22,3.57l-8.41,186.62H455.64z"/>
			<g>
				<linearGradient id="SVGID_7_" gradientUnits="userSpaceOnUse" x1="344.6669" y1="701.0438" x2="353.5569" y2="850.1217">
					<stop  offset="0" style="stop-color:#FEBBBA"/>
					<stop  offset="1" style="stop-color:#FF928E"/>
				</linearGradient>
				<path class="st10" d="M307.37,666.15l-1.52,50.19c-0.15,4.96,2.93,9.44,7.61,11.09c12.83,4.53,39.4,11.41,64.58,2.39
					c5.08-1.82,8.14-7.02,7.35-12.36l-7.55-51.32H307.37z"/>
				<linearGradient id="SVGID_8_" gradientUnits="userSpaceOnUse" x1="327.1519" y1="581.9857" x2="451.9541" y2="748.5024">
					<stop  offset="0" style="stop-color:#FEBBBA"/>
					<stop  offset="1" style="stop-color:#FF928E"/>
				</linearGradient>
				<path class="st11" d="M281.71,574.54c0,0,8.81,89.85,28.19,112.75c0,0,58.14,5.29,79.28-7.05c0,0,14.97-44.93,13.21-104.83
					c0,0,2.89-54.51-57.26-59.02C274.66,511.11,281.71,574.54,281.71,574.54z"/>
				<linearGradient id="SVGID_9_" gradientUnits="userSpaceOnUse" x1="363.7832" y1="554.5313" x2="488.5849" y2="721.0474">
					<stop  offset="0" style="stop-color:#FEBBBA"/>
					<stop  offset="1" style="stop-color:#FF928E"/>
				</linearGradient>
				<path class="st12" d="M396.22,602.73c0,0,5.29-15.86,14.09-15.86c8.81,0-1.76,42.28-14.09,42.28V602.73z"/>
				<linearGradient id="SVGID_10_" gradientUnits="userSpaceOnUse" x1="284.5658" y1="613.9035" x2="409.3676" y2="780.4197">
					<stop  offset="0" style="stop-color:#FEBBBA"/>
					<stop  offset="1" style="stop-color:#FF928E"/>
				</linearGradient>
				<path class="st13" d="M289.72,606.89c0,0-7.38-15-16.1-13.81c-8.73,1.19,7.45,41.66,19.67,40L289.72,606.89z"/>
				<linearGradient id="SVGID_11_" gradientUnits="userSpaceOnUse" x1="282.8457" y1="639.4426" x2="403.9969" y2="639.4426">
					<stop  offset="0" style="stop-color:#09005D"/>
					<stop  offset="1" style="stop-color:#1A0F91"/>
				</linearGradient>
				<path class="st14" d="M282.85,585.75c0,0,6.92,86.43,30.52,116.57c2.17,2.77,5.3,4.38,8.6,4.55
					c12.05,0.64,42.85,1.79,60.22-2.04c4.32-0.95,7.88-4.33,9.3-8.95c2.53-8.21,4.79-14.75,4.92-17.64
					c0.59-13.4,3.65-50.55,7.59-101.2c-1.2-1.9-2.4-3.81-3.6-5.71c-1.09,11.71-8.26,86.29-19.63,88.02c-2.45,0.37-5.1-0.16-5.1-0.16
					c-6.89-1.39-9-6.82-13.8-10.35c-8.37-6.16-22.75-4.93-30.77,1.51c-3.33,2.68-5.44,6.15-11.27,8.63
					c-3.72,1.58-7.22,2.02-8.34,1.97c-8.31-0.35-16.56-33.02-21.2-77.5L282.85,585.75z"/>
				<linearGradient id="SVGID_12_" gradientUnits="userSpaceOnUse" x1="344.2602" y1="684.4556" x2="344.2602" y2="459.8808">
					<stop  offset="0" style="stop-color:#09005D"/>
					<stop  offset="1" style="stop-color:#1A0F91"/>
				</linearGradient>
				<path class="st15" d="M378.6,552.1c0,0-44.89,38.95-93.79,38.8c0,0-27.77-62.58,26.85-72.98c54.61-10.4,56.38,2.97,56.38,2.97
					s63.86-13.23,35.46,63.24L378.6,552.1z"/>
			</g>
			<linearGradient id="SVGID_13_" gradientUnits="userSpaceOnUse" x1="228.6547" y1="735.9443" x2="291.7309" y2="946.367">
				<stop  offset="0" style="stop-color:#09005D"/>
				<stop  offset="1" style="stop-color:#1A0F91"/>
			</linearGradient>
			<path class="st16" d="M225.02,916.33h48.09l23.08-196.64c-63.2,5.75-129.96,49.53-129.96,49.53l49.71,120.62
				C219.5,898.48,222.53,907.43,225.02,916.33z"/>
			<linearGradient id="SVGID_14_" gradientUnits="userSpaceOnUse" x1="432.4677" y1="678.3213" x2="501.4893" y2="908.578">
				<stop  offset="0" style="stop-color:#09005D"/>
				<stop  offset="1" style="stop-color:#1A0F91"/>
			</linearGradient>
			<path class="st17" d="M499.09,916.33c2.71-11.28,5.94-21.68,9.69-32.26l27.8-114.85c-55.38-43.26-141.99-53.37-141.99-53.37
				l32.37,200.48H499.09z"/>
		</g>
	</g>
	
		<linearGradient id="SVGID_15_" gradientUnits="userSpaceOnUse" x1="1686.9352" y1="513.7179" x2="1636.349" y2="668.775" gradientTransform="matrix(1 0 0 1 -754.9978 0)">
		<stop  offset="0" style="stop-color:#FEBBBA"/>
		<stop  offset="1" style="stop-color:#FF928E"/>
	</linearGradient>
	<path class="st18" d="M882.49,528.21c0,0-69.16,88.54,9.75,178.6l29.66-2.76c0,0-54.3-87.19-33.41-159.3
		c0.92-3.18,3.91-5.32,7.21-5.08l30.28,2.21c4.03,0.29,8.02-0.95,11.17-3.48l18.34-14.74L882.49,528.21z"/>
	<linearGradient id="SVGID_16_" gradientUnits="userSpaceOnUse" x1="741.054" y1="-46.3999" x2="953.3434" y2="474.6753">
		<stop  offset="0" style="stop-color:#9D18FE"/>
		<stop  offset="1" style="stop-color:#CB3DFF"/>
	</linearGradient>
	<path class="st19" d="M1095.94,158.53c-1.09-16.85-11.27-31.78-26.52-39.02L871.79,25.65c-12.66-6.01-27.34-6.01-40,0
		l-197.63,93.86c-15.25,7.24-25.43,22.17-26.52,39.02c-18.54,286.54,165.19,390.95,225.42,417.32c11.94,5.23,25.52,5.23,37.46,0
		C930.75,549.48,1114.48,445.08,1095.94,158.53z"/>
	<path class="st20" d="M792.01,64.51c-0.8,0-1.56-0.45-1.92-1.21c-0.5-1.06-0.05-2.33,1.01-2.83l46.7-22.18
		c1.06-0.51,2.33-0.05,2.83,1.01c0.5,1.06,0.05,2.33-1.01,2.83l-46.7,22.18C792.63,64.45,792.32,64.51,792.01,64.51z"/>
	<path class="st20" d="M622.76,219.18c-1.14,0-2.08-0.9-2.12-2.05c-0.63-18.61-0.3-38.02,0.98-57.68
		c0.76-11.76,7.87-22.21,18.56-27.29l132.94-63.14c1.06-0.5,2.33-0.05,2.83,1.01c0.5,1.06,0.05,2.33-1.01,2.83l-132.94,63.14
		c-9.3,4.42-15.48,13.51-16.14,23.72c-1.26,19.53-1.59,38.8-0.97,57.27c0.04,1.17-0.88,2.16-2.05,2.2
		C622.81,219.18,622.78,219.18,622.76,219.18z"/>
	<path class="st2" d="M1048.15,169.72c-0.22-4.27-2.76-8.09-6.63-9.92L856.78,72.05c-3.15-1.5-6.82-1.5-9.97,0L662.06,159.8
		c-3.86,1.84-6.41,5.65-6.63,9.92c-5.46,106.89,19.23,196.07,73.43,265.2c41.33,52.7,89.68,80.94,118.01,94.12
		c3.12,1.45,6.71,1.45,9.83,0c28.33-13.18,76.68-41.42,118.01-94.12C1028.92,365.79,1053.61,276.61,1048.15,169.72z"/>
	<g>
		<path class="st3" d="M797.17,284.56h-18.41v-73.38c0-28.82,21.57-53.18,50.18-56.65l37.65-4.57c16.2-1.97,32.51,3.11,44.73,13.93
			c12.22,10.82,19.23,26.39,19.23,42.72v64.06h-18.41v-64.06c0-11.06-4.75-21.6-13.02-28.94c-8.28-7.33-19.32-10.77-30.3-9.44
			l-37.65,4.57c-19.38,2.36-33.99,18.85-33.99,38.37V284.56z"/>
		<path class="st3" d="M773.31,268.09l161.41-8.94c6.56-0.36,12.07,4.85,12.07,11.42v127.87c0,6.32-5.12,11.44-11.44,11.44H777.82
			c-6.17,0-11.23-4.9-11.43-11.06l-3.88-118.93C762.31,273.67,767.11,268.43,773.31,268.09z"/>
		<path class="st21" d="M880.96,373.24l-9.77-28.09c-1.17-3.38-0.37-7.15,2.14-9.7c5.01-5.07,7.99-12.15,7.64-19.91
			c-0.62-13.7-11.82-24.81-25.52-25.34c-15.17-0.58-27.64,11.54-27.64,26.58c0,8.34,3.84,15.78,9.85,20.66
			c3.12,2.53,4.4,6.68,3.08,10.47l-8.81,25.32c-2.14,6.16,2.43,12.59,8.95,12.59h31.13C878.53,385.83,883.1,379.4,880.96,373.24z"/>
	</g>
	
		<linearGradient id="SVGID_17_" gradientUnits="userSpaceOnUse" x1="1675.3597" y1="1058.4047" x2="1780.1024" y2="1058.4047" gradientTransform="matrix(1 0 0 1 -754.9978 0)">
		<stop  offset="0" style="stop-color:#FEBBBA"/>
		<stop  offset="1" style="stop-color:#FF928E"/>
	</linearGradient>
	<path class="st22" d="M920.36,961.71c0,0,56.03,122.12,85.43,172.7c0,0,5.84,31.83,0,41.84l-4.98,2.21l23.22-0.69
		c0,0,2.06-42.81,0.45-45.2c-1.61-2.39-4.83-2.23-4.83-2.23s-9.96-78.89-38.8-95.73l-27.95-96.26L920.36,961.71z"/>
	
		<linearGradient id="SVGID_18_" gradientUnits="userSpaceOnUse" x1="1819.3314" y1="824.1668" x2="1767.4595" y2="1161.3329" gradientTransform="matrix(1 0 0 1 -754.9978 0)">
		<stop  offset="0" style="stop-color:#09005D"/>
		<stop  offset="1" style="stop-color:#1A0F91"/>
	</linearGradient>
	<path class="st23" d="M990.9,1184.46c-0.03,0.56,18.13,0.3,28,0.12c3.64-0.07,6.75-2.63,7.53-6.19l7.45-39.16
		c0.71-3.72-1.65-7.34-5.35-8.18l-4.16-0.95c0,0-5.93,8.14-4.07,15.81c1.87,7.67,3.53,27.52-1.19,29.83
		c-4.72,2.31-18.3,2.72-18.3,2.72S991.21,1179.42,990.9,1184.46z"/>
	
		<linearGradient id="SVGID_19_" gradientUnits="userSpaceOnUse" x1="1709.5762" y1="807.2826" x2="1657.7042" y2="1144.4489" gradientTransform="matrix(1 0 0 1 -754.9978 0)">
		<stop  offset="0" style="stop-color:#09005D"/>
		<stop  offset="1" style="stop-color:#1A0F91"/>
	</linearGradient>
	<path class="st24" d="M867.25,1185.17c-1.84,1.05-1.08,3.85,1.04,3.83c16.52-0.17,53.53-0.69,56.81-2.06
		c4.25-1.77-1.55-17.02-7.64-22.19l-33.66,10.99L867.25,1185.17z"/>
	
		<linearGradient id="SVGID_20_" gradientUnits="userSpaceOnUse" x1="1611.8022" y1="1066.1929" x2="1672.4567" y2="1066.1929" gradientTransform="matrix(1 0 0 1 -754.9978 0)">
		<stop  offset="0" style="stop-color:#FEBBBA"/>
		<stop  offset="1" style="stop-color:#FF928E"/>
	</linearGradient>
	<path class="st25" d="M856.8,953.92c0,0,36.21,175.16,46.45,209.33l-24.23,15.21c0,0,12.14-2.07,21.15-2.72
		c9-0.65,17.29-10.99,17.29-10.99l-2.9-4.63c0,0-9.08-174.21-6.87-193.99L856.8,953.92z"/>
	
		<linearGradient id="SVGID_21_" gradientUnits="userSpaceOnUse" x1="1481.1421" y1="611.1248" x2="1599.8839" y2="611.1248" gradientTransform="matrix(1 0 0 1 -754.9978 0)">
		<stop  offset="0" style="stop-color:#FEBBBA"/>
		<stop  offset="1" style="stop-color:#FF928E"/>
	</linearGradient>
	<path class="st26" d="M766.92,545.35c0,0-4.99,91.12,77.96,137.68l-19.97,45.55c0,0-75.11-45.43-72.33-169.33
		c0.08-3.56-1.2-7.01-3.53-9.7l-15.96-18.52c-6.08-7.06-8.35-16.63-6.09-25.66l2.1-8.4c0.7-2.81,3.91-4.16,6.41-2.71l1.67,0.97
		c5.31,3.09,9.52,7.77,12.03,13.38l8.02,12.65c2.93,6.54,3.61,9.29,10.75,8.67l13.28,0.15L766.92,545.35z"/>
	<path class="st2" d="M842,676.2c13.88,3.85,60.9,16.22,90.25,15.71l-18.02,101.7l1.43,16.59l-58.76-0.26
		c0,0-16.54-38.42-29.59-57.57c-3.77-5.53-0.96-12.13,1.17-18.47l-2.93-1.95c-2.99-1.99-4.28-5.72-3.17-9.13l14.31-43.78
		C837.43,676.83,839.75,675.58,842,676.2z"/>
	<path class="st4" d="M852.19,801.26l1.16,10.05c0,0-16.61,49.73,8.3,165.88c0,0,53.95,15.28,98.28-21.29
		c0,0-12.51-109.63-15.92-114.74c-17.02-25.43-28.35-30.96-28.35-30.96l-0.51-10.98C915.15,799.23,867.73,807.8,852.19,801.26z"/>
	
		<linearGradient id="SVGID_22_" gradientUnits="userSpaceOnUse" x1="1630.1902" y1="669.4215" x2="1667.3073" y2="669.4215" gradientTransform="matrix(1 0 0 1 -754.9978 0)">
		<stop  offset="0" style="stop-color:#FEBBBA"/>
		<stop  offset="1" style="stop-color:#FF928E"/>
	</linearGradient>
	<path class="st27" d="M875.19,684.4c-0.21-0.27,12.27-37.66,12.27-37.66l17.87,1.62l6.98,42.41
		C912.31,690.78,884.31,696.43,875.19,684.4z"/>
	<g>
		
			<linearGradient id="SVGID_23_" gradientUnits="userSpaceOnUse" x1="1689.1809" y1="621.4554" x2="1959.3453" y2="639.8265" gradientTransform="matrix(1 0 0 1 -754.9978 0)">
			<stop  offset="0" style="stop-color:#FEBBBA"/>
			<stop  offset="1" style="stop-color:#FF928E"/>
		</linearGradient>
		<path class="st28" d="M901.05,587.78c-1.19,0.74-38.18,16.03-30.23,54.43c0.47,2.27,1.98,4.19,4.1,5.14
			c5.43,2.42,17.11,6.57,31.09,5.15c19.38-1.97,32.07-35.78,31.53-45.62S912.86,580.43,901.05,587.78z"/>
		<g>
			
				<linearGradient id="SVGID_24_" gradientUnits="userSpaceOnUse" x1="-1439.8057" y1="3071.1106" x2="-1630.4598" y2="3229.6199" gradientTransform="matrix(0.1482 0.9889 -0.9889 0.1482 4322.8179 1805.8176)">
				<stop  offset="0" style="stop-color:#09005D"/>
				<stop  offset="1" style="stop-color:#1A0F91"/>
			</linearGradient>
			<path class="st29" d="M898.17,623.03c-5.74-14.32-11.06-26.91-5.05-36.48c8.85-14.08,43.92-15.14,62.13,4.05
				c19.01,20.04,0.94,46.81,20.5,68.54c15.28,16.97,32.9,7.96,54.27,20.85c35.46,21.4,52.85,85.97,31.83,121.4
				c-34.36,57.92-172.1,39.17-193.46-9.09C849.46,749.5,925.11,690.3,898.17,623.03z"/>
			<path class="st30" d="M945.87,704.04c-0.11-0.27-0.22-0.54-0.32-0.81c-4-10.66-3.32-23.56,2.08-39.44
				c8.41-24.73,8.17-32.74,2.27-47.13c-0.17-0.42-0.35-0.84-0.53-1.27l0.58-0.24c0.17,0.41,0.34,0.81,0.5,1.2
				c5.91,14.4,6.2,22.88-2.23,47.65c-5.35,15.74-6.03,28.5-2.08,39.01c4.26,11.34,15.93,20.2,32.02,24.25
				c7.01,1.77,14.33,2.65,21.41,3.5c6.63,0.8,13.5,1.63,20.11,3.18c4.82,1.13,11.83,3.17,17.07,7.85
				c5.21,4.65,7.66,11.38,6.23,17.14l-0.62-0.15c1.37-5.54-1-12.02-6.03-16.52c-5.13-4.58-12.04-6.59-16.79-7.71
				c-6.58-1.54-13.43-2.37-20.04-3.17c-7.1-0.86-14.44-1.74-21.49-3.51C962.1,723.87,950.45,715.21,945.87,704.04z"/>
			<path class="st30" d="M932.49,713.47c-0.45-1.1-0.84-2.22-1.15-3.34c-2.01-7.18-1.1-16.88,5.47-22.37l0.41,0.49
				c-6.35,5.31-7.22,14.73-5.27,21.71c2.53,9.03,9.65,17.46,20.03,23.76c6.84,4.15,14.44,7.16,21.8,10.06
				c2.43,0.96,4.95,1.96,7.41,2.98c10.8,4.5,21.3,9.92,31.22,16.12c6.57,4.1,13,8.86,15.85,15.8c0.1,0.23,0.19,0.47,0.27,0.7
				c1.55,4.23,1.06,9.51-1.24,13.45c-1.78,3.04-4.46,4.99-7.55,5.49l-0.1-0.62c2.9-0.47,5.42-2.31,7.1-5.18
				c2.22-3.79,2.69-8.85,1.2-12.91c-2.64-7.17-9.18-12-15.87-16.19c-9.88-6.18-20.36-11.59-31.12-16.07
				c-2.45-1.02-4.96-2.01-7.4-2.97c-7.37-2.91-15-5.92-21.89-10.11C942.42,728.66,935.73,721.37,932.49,713.47z"/>
			<path class="st30" d="M926.49,724.01c-1.1-2.68-1.68-5.61-1.44-8.75l0.63,0.05c-0.89,11.26,9.72,19.95,14.33,23.16
				c5.16,3.61,10.89,6.63,16.43,9.55c9.16,4.83,18.62,9.83,25.7,17.57c3.62,3.96,5.94,8.01,6.88,12.03
				c1.16,4.96,0.16,9.96-2.68,13.38l-0.49-0.4c2.71-3.26,3.66-8.06,2.55-12.83c-0.91-3.91-3.18-7.87-6.73-11.75
				c-7-7.66-16.42-12.63-25.53-17.43c-5.56-2.93-11.3-5.96-16.49-9.59C935.46,736.07,929.29,730.86,926.49,724.01z"/>
		</g>
	</g>
</g>
</svg>
